<svg width="40" height="40" viewBox="0 0 40 40" fill="none" xmlns="http://www.w3.org/2000/svg">
<path d="M1.2997 20.9782H29.2044C29.5644 20.9746 29.9093 20.8299 30.1684 20.5739C30.4274 20.3179 30.5809 19.97 30.5972 19.6017L31.2222 1.37653C31.229 1.19796 31.2004 1.01982 31.1383 0.85284C31.0761 0.685859 30.9816 0.533486 30.8604 0.404889C30.7392 0.276293 30.5939 0.17413 30.4332 0.10455C30.2725 0.0349695 30.0996 -0.000592442 29.9251 7.46534e-06H2.01878C1.65867 0.00317262 1.31347 0.147704 1.05434 0.40381C0.795205 0.659916 0.641883 1.00808 0.625977 1.37653L0.0009813 19.5999C-0.00581802 19.7787 0.0227717 19.9571 0.0850296 20.1243C0.147288 20.2915 0.241927 20.444 0.363254 20.5728C0.484581 20.7016 0.630088 20.8039 0.791019 20.8735C0.95195 20.9432 1.12498 20.9788 1.2997 20.9782Z" fill="#2DC0CE"/>
<path opacity="0.4" d="M1.2997 20.9782H29.2044C29.5644 20.9746 29.9093 20.8299 30.1684 20.5739C30.4274 20.3179 30.5809 19.97 30.5972 19.6017L31.2222 1.37653C31.229 1.19796 31.2004 1.01982 31.1383 0.85284C31.0761 0.685859 30.9816 0.533486 30.8604 0.404889C30.7392 0.276293 30.5939 0.17413 30.4332 0.10455C30.2725 0.0349695 30.0996 -0.000592442 29.9251 7.46534e-06H2.01878C1.65867 0.00317262 1.31347 0.147704 1.05434 0.40381C0.795205 0.659916 0.641883 1.00808 0.625977 1.37653L0.0009813 19.5999C-0.00581802 19.7787 0.0227717 19.9571 0.0850296 20.1243C0.147288 20.2915 0.241927 20.444 0.363254 20.5728C0.484581 20.7016 0.630088 20.8039 0.791019 20.8735C0.95195 20.9432 1.12498 20.9788 1.2997 20.9782Z" fill="#111516"/>
<path d="M1.56517 20.9782H29.4715C29.8314 20.9742 30.1761 20.8294 30.4351 20.5735C30.6941 20.3175 30.8476 19.9698 30.8643 19.6017L31.4893 1.37654C31.4962 1.19782 31.4676 1.01954 31.4053 0.852443C31.343 0.685347 31.2483 0.532893 31.127 0.404271C31.0056 0.27565 30.8601 0.173524 30.6992 0.104047C30.5383 0.0345707 30.3653 -0.00081835 30.1906 1.43608e-05H2.28425C1.92444 0.00361745 1.57966 0.148344 1.32089 0.404405C1.06211 0.660466 0.909024 1.00838 0.893135 1.37654L0.268139 19.6C0.261107 19.7787 0.28948 19.957 0.351549 20.1242C0.413618 20.2914 0.508097 20.4439 0.629292 20.5727C0.750486 20.7015 0.895887 20.8038 1.05673 20.8735C1.21757 20.9432 1.39053 20.9788 1.56517 20.9782Z" fill="#2DC0CE"/>
<path opacity="0.9" d="M29.2042 19.8305C29.3463 19.8289 29.4824 19.7717 29.5845 19.6705C29.6867 19.5694 29.7472 19.4321 29.7536 19.2868L30.3534 1.68795C30.3571 1.61788 30.3467 1.54779 30.323 1.48195C30.2994 1.41611 30.2628 1.3559 30.2156 1.30502C30.1685 1.25413 30.1117 1.21363 30.0487 1.18598C29.9857 1.15833 29.9179 1.14413 29.8494 1.14423H2.55121C2.40927 1.14625 2.27343 1.20361 2.17135 1.30464C2.06928 1.40566 2.00865 1.54274 2.00182 1.68795L1.39867 19.2868C1.39501 19.3568 1.40534 19.4269 1.42903 19.4928C1.45272 19.5586 1.48927 19.6188 1.53644 19.6697C1.58361 19.7206 1.64042 19.7611 1.70339 19.7887C1.76637 19.8164 1.83418 19.8306 1.9027 19.8305H29.2042Z" fill="#FEFEFE"/>
<path opacity="0.3" d="M20.9685 15.0678C21.8509 13.9293 22.3653 12.5377 22.4402 11.0862C22.513 9.67591 22.1304 8.28032 21.3515 7.11492V7.09428C21.3383 7.0743 21.3237 7.05532 21.3079 7.03749C20.7299 6.20357 19.964 5.52485 19.075 5.05903C18.1861 4.59321 17.2006 4.35405 16.2021 4.36188C15.1698 4.36994 14.1524 4.61422 13.2242 5.07686C12.296 5.5395 11.4806 6.20879 10.8375 7.03577C10.8241 7.05126 10.8106 7.06502 10.7989 7.08051C10.7964 7.08641 10.7936 7.09216 10.7905 7.09772C9.907 8.23636 9.39197 9.62868 9.31703 11.081C9.24125 12.4962 9.62462 13.8973 10.4074 15.0661C10.4068 15.0712 10.4068 15.0764 10.4074 15.0815L10.4225 15.1005C10.9996 15.942 11.7676 16.6275 12.6605 17.0981C13.5533 17.5686 14.5444 17.8102 15.5485 17.8019C16.5791 17.7936 17.5948 17.5499 18.5217 17.0885C19.4486 16.6271 20.2633 15.9597 20.9063 15.1349C20.9218 15.1179 20.9364 15.1001 20.95 15.0815C20.9565 15.0774 20.9626 15.0728 20.9685 15.0678ZM15.5922 17.007C14.653 17.007 13.8617 15.8834 13.4601 14.2264C14.2096 14.0725 14.9723 13.9959 15.7367 13.9975C16.4939 13.9958 17.2494 14.073 17.9914 14.2281C17.4302 15.8902 16.5314 17.007 15.5939 17.007H15.5922ZM15.7753 13.1957C14.9459 13.1939 14.1184 13.2781 13.3056 13.4469C13.2059 12.7988 13.162 12.143 13.1745 11.4871H18.5424C18.4898 12.1484 18.383 12.804 18.2232 13.4469C17.4184 13.2775 16.5987 13.1933 15.777 13.1957H15.7753ZM10.0916 11.4871H12.3933C12.3769 12.2075 12.4242 12.9279 12.5344 13.6396C11.9615 13.8047 11.4085 14.0356 10.8862 14.3279C10.3794 13.4703 10.1056 12.4895 10.0932 11.4871H10.0916ZM11.2004 7.8462C11.6987 8.14056 12.2302 8.37168 12.7831 8.53446C12.6059 9.24076 12.4895 9.96161 12.4353 10.6887H10.1336C10.2513 9.6647 10.6181 8.68733 11.2004 7.8462ZM16.1651 5.16714C17.1043 5.16714 17.8939 6.29073 18.2971 7.94772C17.5469 8.10063 16.7838 8.17729 16.0189 8.17656C15.2618 8.17792 14.5064 8.10125 13.7642 7.94772C14.3254 6.29073 15.2326 5.16714 16.1634 5.16714H16.1651ZM15.982 8.97667C16.8114 8.97826 17.6388 8.89409 18.4517 8.72545C18.5507 9.37419 18.5945 10.0305 18.5828 10.687H13.2165C13.2682 10.025 13.375 9.3688 13.5357 8.72545C14.34 8.89495 15.1592 8.97914 15.9803 8.97667H15.982ZM21.6657 10.687H19.364C19.3796 9.96604 19.3323 9.2451 19.2229 8.53274C19.7956 8.3671 20.3485 8.13624 20.871 7.84448C21.3774 8.70293 21.6512 9.68413 21.664 10.687H21.6657ZM19.3254 11.4871H21.6271C21.5078 12.5099 21.1404 13.4859 20.5585 14.3262C20.06 14.0322 19.5286 13.8011 18.9759 13.6379C19.1536 12.9329 19.27 12.2132 19.3237 11.4871H19.3254ZM20.4258 7.2044C19.9922 7.43434 19.5368 7.61826 19.0666 7.75329C18.893 6.95198 18.5702 6.19249 18.1157 5.51644C19.0177 5.85947 19.8144 6.44204 20.4241 7.2044H20.4258ZM14.1792 5.51988C13.6649 6.18929 13.2701 6.94656 13.0132 7.75673C12.5602 7.62212 12.1225 7.43811 11.7078 7.20784C12.3858 6.44913 13.2333 5.86996 14.1775 5.51988H14.1792ZM11.3348 14.9697C11.7682 14.7402 12.223 14.5557 12.6923 14.4191C12.8663 15.2203 13.1892 15.9797 13.6433 16.6559C12.7409 16.3136 11.9436 15.7316 11.3331 14.9697H11.3348ZM17.5848 16.6525C18.1002 15.9838 18.4951 15.2263 18.7508 14.4156C19.204 14.5505 19.6417 14.7351 20.0562 14.9663C19.3779 15.725 18.5298 16.3037 17.5848 16.6525Z" fill="#2DC0CE"/>
<path opacity="0.6" d="M7.58328 1.14423L5.15723 19.8305H8.38637L10.8124 1.14423H7.58328Z" fill="#FEFEFE"/>
<path opacity="0.6" d="M11.9146 1.14423L9.48853 19.8305H10.8124L13.2402 1.14423H11.9146Z" fill="#FEFEFE"/>
<path opacity="0.3" d="M16.0107 0.602216C16.0095 0.62974 16.0139 0.657216 16.0234 0.682968C16.033 0.708719 16.0476 0.73221 16.0663 0.752009C16.085 0.771808 16.1074 0.787501 16.1322 0.798135C16.157 0.808768 16.1837 0.81412 16.2106 0.813862C16.2659 0.813462 16.319 0.791244 16.3587 0.751828C16.3984 0.712412 16.4218 0.658829 16.424 0.602216C16.4251 0.574692 16.4208 0.547219 16.4112 0.521467C16.4017 0.495716 16.3871 0.472225 16.3684 0.452426C16.3497 0.432626 16.3272 0.416933 16.3024 0.4063C16.2776 0.395666 16.2509 0.390315 16.224 0.390573C16.1687 0.390972 16.1157 0.413188 16.076 0.452604C16.0362 0.49202 16.0128 0.545603 16.0107 0.602216Z" fill="#FEFEFE"/>
<path d="M33.5644 40H5.65638C5.27345 39.9813 4.9064 39.8376 4.60894 39.5899C4.31148 39.3422 4.0992 39.0036 4.00317 38.6235L0.431286 22.6386C0.263277 21.8815 0.728663 21.2621 1.4679 21.2621H29.3743C29.7571 21.2811 30.1241 21.4248 30.4215 21.6725C30.7189 21.9201 30.9312 22.2586 31.0275 22.6386L34.5994 38.6235C34.7707 39.3805 34.3037 40 33.5644 40Z" fill="#2DC0CE"/>
<path opacity="0.4" d="M33.5644 40H5.65638C5.27345 39.9813 4.9064 39.8376 4.60894 39.5899C4.31148 39.3422 4.0992 39.0036 4.00317 38.6235L0.431286 22.6386C0.263277 21.8815 0.728663 21.2621 1.4679 21.2621H29.3743C29.7571 21.2811 30.1241 21.4248 30.4215 21.6725C30.7189 21.9201 30.9312 22.2586 31.0275 22.6386L34.5994 38.6235C34.7707 39.3805 34.3037 40 33.5644 40Z" fill="#111516"/>
<path d="M33.8313 40H5.92494C5.54192 39.9816 5.17475 39.838 4.87724 39.5902C4.57972 39.3425 4.36752 39.0037 4.27172 38.6235L0.699841 22.6369C0.531832 21.8798 0.997217 21.2604 1.73646 21.2604H29.6428C30.0257 21.2793 30.3926 21.4231 30.69 21.6708C30.9874 21.9184 31.1998 22.2569 31.296 22.6369L34.8679 38.6217C35.0376 39.3806 34.5706 40 33.8313 40Z" fill="#2DC0CE"/>
<path opacity="0.2" d="M4.44815 32.0213C4.29699 32.014 4.1521 31.9573 4.03477 31.8594C3.91744 31.7616 3.83384 31.6277 3.79627 31.4776L1.89104 22.9449C1.87303 22.8814 1.86991 22.8145 1.88194 22.7495C1.89397 22.6845 1.92081 22.6234 1.96027 22.5711C1.99974 22.5188 2.05071 22.4767 2.10904 22.4484C2.16737 22.4201 2.23141 22.4062 2.29594 22.4081H29.5924C29.7437 22.4151 29.8887 22.4717 30.0061 22.5696C30.1235 22.6675 30.207 22.8015 30.2443 22.9518L32.1512 31.4776C32.1703 31.5419 32.1741 31.61 32.1622 31.6761C32.1504 31.7423 32.1233 31.8045 32.0832 31.8577C32.043 31.9109 31.9911 31.9536 31.9316 31.982C31.8721 32.0105 31.8069 32.024 31.7413 32.0213H4.44815Z" fill="#111516"/>
<path opacity="0.2" d="M15.6949 38.7285C15.6067 38.7241 15.5222 38.6911 15.4536 38.6341C15.385 38.5772 15.336 38.4993 15.3135 38.4119L14.203 33.4409C14.192 33.4035 14.1899 33.3639 14.1969 33.3254C14.2038 33.287 14.2196 33.2508 14.2429 33.2199C14.2662 33.1889 14.2964 33.1641 14.331 33.1475C14.3655 33.1309 14.4034 33.1229 14.4416 33.1243H22.2406C22.3294 33.1277 22.4148 33.1603 22.4842 33.2173C22.5535 33.2744 22.603 33.3528 22.6253 33.4409L23.7375 38.4119C23.7485 38.4493 23.7506 38.4889 23.7437 38.5273C23.7367 38.5658 23.7209 38.6019 23.6976 38.6329C23.6743 38.6638 23.6441 38.6886 23.6096 38.7053C23.575 38.7219 23.5371 38.7298 23.499 38.7285H15.6949Z" fill="#111516"/>
<path d="M34.5925 27.5752L35.4325 4.90222C35.4384 4.76034 35.4163 4.6187 35.3675 4.48577C35.3187 4.35284 35.2443 4.23135 35.1486 4.12856C35.0529 4.02576 34.938 3.94378 34.8107 3.8875C34.6834 3.83121 34.5463 3.8018 34.4077 3.801L20.2949 3.67883C20.0094 3.67895 19.735 3.79163 19.5285 3.99347C19.3221 4.19532 19.1994 4.47084 19.186 4.76284L18.346 27.4342C18.3399 27.5762 18.3618 27.718 18.4105 27.8511C18.4592 27.9843 18.5336 28.106 18.6293 28.2089C18.725 28.3119 18.84 28.3941 18.9674 28.4504C19.0948 28.5068 19.232 28.5363 19.3708 28.5371L33.4836 28.6593C33.7689 28.6587 34.0431 28.5459 34.2495 28.3441C34.4559 28.1424 34.5787 27.8671 34.5925 27.5752Z" fill="#2DC0CE"/>
<path opacity="0.4" d="M34.5925 27.5752L35.4325 4.90222C35.4384 4.76034 35.4163 4.6187 35.3675 4.48577C35.3187 4.35284 35.2443 4.23135 35.1486 4.12856C35.0529 4.02576 34.938 3.94378 34.8107 3.8875C34.6834 3.83121 34.5463 3.8018 34.4077 3.801L20.2949 3.67883C20.0094 3.67895 19.735 3.79163 19.5285 3.99347C19.3221 4.19532 19.1994 4.47084 19.186 4.76284L18.346 27.4342C18.3399 27.5762 18.3618 27.718 18.4105 27.8511C18.4592 27.9843 18.5336 28.106 18.6293 28.2089C18.725 28.3119 18.84 28.3941 18.9674 28.4504C19.0948 28.5068 19.232 28.5363 19.3708 28.5371L33.4836 28.6593C33.7689 28.6587 34.0431 28.5459 34.2495 28.3441C34.4559 28.1424 34.5787 27.8671 34.5925 27.5752Z" fill="#111516"/>
<path d="M34.9033 27.5734L35.7518 4.90041C35.7574 4.75845 35.7351 4.61677 35.6861 4.48383C35.6372 4.3509 35.5625 4.22943 35.4667 4.12666C35.3709 4.02389 35.2559 3.94193 35.1285 3.88567C35.0011 3.82941 34.864 3.8 34.7252 3.79919L20.6091 3.67358C20.3237 3.6737 20.0492 3.78638 19.8427 3.98822C19.6363 4.19007 19.5136 4.46559 19.5002 4.7576L18.6602 27.4289C18.6541 27.5709 18.676 27.7127 18.7247 27.8459C18.7734 27.979 18.8478 28.1007 18.9435 28.2037C19.0392 28.3067 19.1542 28.3888 19.2816 28.4452C19.409 28.5016 19.5462 28.531 19.685 28.5318L33.7978 28.654C34.0821 28.653 34.3553 28.5405 34.5609 28.3394C34.7666 28.1384 34.8891 27.8642 34.9033 27.5734Z" fill="#2DC0CE"/>
<path opacity="0.9" d="M34.853 5.14132C34.8553 5.08535 34.8465 5.02949 34.8272 4.97708C34.8078 4.92467 34.7784 4.87679 34.7406 4.83631C34.7028 4.79583 34.6574 4.76357 34.6072 4.74148C34.5569 4.71938 34.5028 4.7079 34.4481 4.70771L20.8208 4.58899C20.7083 4.58931 20.6001 4.63397 20.5188 4.71373C20.4374 4.7935 20.3892 4.90224 20.384 5.01743L19.5541 27.1915C19.5518 27.2475 19.5606 27.3035 19.5799 27.356C19.5992 27.4085 19.6286 27.4565 19.6664 27.4971C19.7041 27.5377 19.7495 27.5701 19.7998 27.5924C19.8501 27.6147 19.9042 27.6264 19.959 27.6268L33.5862 27.7438C33.6987 27.7439 33.8068 27.6996 33.8882 27.6201C33.9695 27.5407 34.0178 27.4321 34.023 27.3171L34.853 5.14132Z" fill="#FEFEFE"/>
<path opacity="0.3" d="M32.2706 20.0628C33.0893 19.0051 33.5666 17.7129 33.6365 16.3651C33.7065 15.0531 33.3522 13.7541 32.6284 12.6692V12.652C32.6168 12.6324 32.6026 12.6145 32.5864 12.5986C32.0498 11.8275 31.3396 11.2002 30.5161 10.7698C29.6925 10.3394 28.7799 10.1186 27.8553 10.126C26.8968 10.1338 25.9521 10.3608 25.0903 10.7903C24.2284 11.2199 23.4712 11.8412 22.8738 12.6089C22.8612 12.6225 22.8494 12.6368 22.8385 12.652L22.8301 12.6674C22.004 13.722 21.5211 15.0151 21.4491 16.3651C21.3771 17.6784 21.7315 18.9792 22.4572 20.0645C22.4578 20.0697 22.4578 20.0749 22.4572 20.08L22.4723 20.0972C23.0096 20.8797 23.7247 21.5165 24.556 21.9526C25.3873 22.3888 26.3098 22.6113 27.2437 22.6008C28.2006 22.5934 29.1439 22.3673 30.0045 21.9389C30.8652 21.5106 31.6216 20.8907 32.2185 20.1247C32.2334 20.1095 32.2474 20.0934 32.2605 20.0766L32.2706 20.0628ZM27.279 21.8626C26.4087 21.8626 25.6745 20.8182 25.2999 19.2816C25.9958 19.1392 26.7038 19.0678 27.4134 19.0683C28.1186 19.0662 28.8223 19.1371 29.5135 19.2799C28.986 20.8182 28.151 21.8626 27.279 21.8626ZM27.447 18.3249C26.6769 18.3231 25.9086 18.4009 25.1537 18.5572C25.061 17.9552 25.02 17.3461 25.0311 16.7368H30.0176C29.9687 17.3511 29.8692 17.9601 29.7202 18.5572C28.9734 18.4002 28.2128 18.3224 27.4504 18.3249H27.447ZM22.1699 16.7368H24.3053C24.2891 17.4059 24.3329 18.0752 24.4363 18.7362C23.9044 18.8889 23.391 19.1024 22.9057 19.3728C22.4373 18.5764 22.1844 17.6665 22.1732 16.7368H22.1699ZM23.1964 13.3574C23.6593 13.6302 24.1529 13.844 24.6665 13.9941C24.501 14.65 24.3924 15.3196 24.3422 15.9952H22.2085C22.3178 15.0447 22.6587 14.1377 23.1998 13.3574H23.1964ZM27.8049 10.8694C28.6769 10.8694 29.4111 11.9121 29.7857 13.4503C29.0894 13.5935 28.3807 13.665 27.6705 13.6637C26.9674 13.6658 26.266 13.5943 25.5771 13.4503C26.103 11.9121 26.9363 10.8694 27.8083 10.8694H27.8049ZM27.6369 14.407C28.4078 14.408 29.1768 14.3284 29.9319 14.1696C30.0239 14.7722 30.0644 15.3819 30.0529 15.9917H25.0714C25.1191 15.3768 25.218 14.7672 25.3671 14.1696C26.1142 14.3291 26.8754 14.4087 27.6386 14.407H27.6369ZM32.9141 15.9952H30.7787C30.7932 15.3255 30.7493 14.6558 30.6476 13.9941C31.1798 13.8421 31.6933 13.6285 32.1782 13.3574C32.6484 14.154 32.903 15.0644 32.9157 15.9952H32.9141ZM30.7417 16.7368H32.8737C32.7629 17.6863 32.4221 18.5924 31.8825 19.3728C31.4191 19.1011 30.9255 18.8874 30.4124 18.7362C30.5794 18.0809 30.6901 17.4118 30.7434 16.7368H30.7417ZM31.7632 12.7604C31.3608 12.9758 30.938 13.1487 30.5014 13.2765C30.3401 12.5338 30.0407 11.8299 29.6194 11.2032C30.4565 11.5187 31.1969 12.056 31.7649 12.7604H31.7632ZM25.9635 11.198C25.4853 11.8177 25.1189 12.5199 24.8815 13.2714C24.4605 13.1454 24.0542 12.9723 23.6702 12.7552C24.3011 12.0538 25.0886 11.5195 25.9652 11.198H25.9635ZM23.3224 19.9733C23.7242 19.7579 24.1464 19.5849 24.5825 19.4571C24.7451 20.1997 25.045 20.9035 25.4662 21.5305C24.6299 21.2144 23.8906 20.6764 23.3241 19.9716L23.3224 19.9733ZM29.1221 21.5357C29.5993 20.9153 29.9656 20.2133 30.2041 19.4623C30.6248 19.5894 31.0309 19.7624 31.4154 19.9785C30.7857 20.6792 29.9993 21.213 29.1238 21.534L29.1221 21.5357Z" fill="#2DC0CE"/>
<path opacity="0.6" d="M23.766 4.61481L21.345 27.6388L24.5708 27.6664L26.9918 4.64234L23.766 4.61481Z" fill="#FEFEFE"/>
<path opacity="0.6" d="M28.0922 4.65265L25.6711 27.6767L26.9951 27.687L29.4161 4.66297L28.0922 4.65265Z" fill="#FEFEFE"/>
<path opacity="0.3" d="M27.3497 4.31709C27.3942 4.31709 27.437 4.29897 27.4685 4.2667C27.5 4.23443 27.5177 4.19066 27.5177 4.14503C27.519 4.12294 27.516 4.10079 27.5087 4.07996C27.5014 4.05913 27.4899 4.04005 27.4751 4.02392C27.4603 4.00779 27.4424 3.99495 27.4226 3.98618C27.4027 3.97742 27.3814 3.97292 27.3597 3.97296C27.3152 3.97296 27.2724 3.99109 27.2409 4.02336C27.2094 4.05563 27.1917 4.09939 27.1917 4.14503C27.1903 4.16712 27.1934 4.18927 27.2007 4.2101C27.208 4.23093 27.2195 4.25 27.2343 4.26613C27.2491 4.28226 27.267 4.29511 27.2868 4.30387C27.3066 4.31264 27.328 4.31714 27.3497 4.31709Z" fill="#FEFEFE"/>
<path d="M38.8463 33.6508L39.6947 15.8558C39.7006 15.7139 39.6785 15.5721 39.6297 15.4391C39.581 15.3061 39.5065 15.1845 39.4109 15.0816C39.3153 14.9786 39.2003 14.8965 39.073 14.84C38.9457 14.7836 38.8086 14.7539 38.6699 14.7529L30.5097 14.6324C30.2245 14.6325 29.9503 14.745 29.7439 14.9465C29.5374 15.1479 29.4146 15.423 29.4008 15.7147L28.5607 33.5114C28.5549 33.6533 28.577 33.795 28.6258 33.9279C28.6745 34.0608 28.749 34.1823 28.8447 34.2851C28.9403 34.3879 29.0553 34.4699 29.1826 34.5262C29.3099 34.5824 29.4469 34.6119 29.5856 34.6127L37.7458 34.7348C38.0298 34.7325 38.3021 34.6189 38.5068 34.4172C38.7115 34.2156 38.833 33.9413 38.8463 33.6508Z" fill="#2DC0CE"/>
<path opacity="0.4" d="M38.8463 33.6508L39.6947 15.8558C39.7006 15.7139 39.6785 15.5721 39.6297 15.4391C39.581 15.3061 39.5065 15.1845 39.4109 15.0816C39.3153 14.9786 39.2003 14.8965 39.073 14.84C38.9457 14.7836 38.8086 14.7539 38.6699 14.7529L30.5097 14.6324C30.2245 14.6325 29.9503 14.745 29.7439 14.9465C29.5374 15.1479 29.4146 15.423 29.4008 15.7147L28.5607 33.5114C28.5549 33.6533 28.577 33.795 28.6258 33.9279C28.6745 34.0608 28.749 34.1823 28.8447 34.2851C28.9403 34.3879 29.0553 34.4699 29.1826 34.5262C29.3099 34.5824 29.4469 34.6119 29.5856 34.6127L37.7458 34.7348C38.0298 34.7325 38.3021 34.6189 38.5068 34.4172C38.7115 34.2156 38.833 33.9413 38.8463 33.6508Z" fill="#111516"/>
<path d="M39.159 33.6508L39.9991 15.8558C40.0052 15.7138 39.9832 15.572 39.9345 15.4389C39.8859 15.3057 39.8114 15.184 39.7158 15.081C39.6201 14.9781 39.5051 14.8959 39.3776 14.8395C39.2502 14.7831 39.113 14.7537 38.9742 14.7529L30.814 14.6324C30.529 14.6326 30.255 14.7451 30.0488 14.9466C29.8427 15.1481 29.7202 15.4232 29.7068 15.7147L28.8583 33.5114C28.8525 33.6533 28.8746 33.795 28.9234 33.9279C28.9722 34.0608 29.0466 34.1823 29.1423 34.2851C29.2379 34.3879 29.3529 34.4699 29.4802 34.5262C29.6075 34.5824 29.7445 34.6119 29.8832 34.6127L38.0434 34.7348C38.3299 34.7361 38.6058 34.624 38.8136 34.4221C39.0214 34.2201 39.1452 33.9439 39.159 33.6508Z" fill="#2DC0CE"/>
<path opacity="0.9" d="M39.1084 16.0968C39.1104 16.0408 39.1015 15.9849 39.0821 15.9325C39.0627 15.8801 39.0333 15.8322 38.9956 15.7917C38.9578 15.7511 38.9126 15.7187 38.8624 15.6963C38.8122 15.6739 38.7582 15.6621 38.7035 15.6614L31.0255 15.5461C30.9129 15.5465 30.8047 15.5911 30.7234 15.6709C30.6421 15.7506 30.5938 15.8594 30.5887 15.9746L29.7621 33.2689C29.7598 33.3249 29.7686 33.3808 29.7879 33.4333C29.8072 33.4858 29.8366 33.5338 29.8744 33.5745C29.9121 33.6151 29.9575 33.6475 30.0078 33.6698C30.0581 33.6921 30.1122 33.7038 30.167 33.7042L37.8416 33.8212C37.9541 33.8213 38.0622 33.777 38.1436 33.6975C38.225 33.6181 38.2733 33.5095 38.2785 33.3945L39.1084 16.0968Z" fill="#FEFEFE"/>
<path opacity="0.3" d="M37.3362 27.0745C37.8394 26.4255 38.133 25.6324 38.1763 24.8049C38.2187 23.9992 38.0009 23.2016 37.5563 22.5354C37.5563 22.5354 37.5563 22.5354 37.5563 22.5251C37.5494 22.5135 37.5416 22.5026 37.5328 22.4924C37.2028 22.0191 36.7664 21.6342 36.2605 21.37C35.7546 21.1059 35.1941 20.9703 34.6262 20.9748C34.0381 20.9794 33.4583 21.1186 32.9295 21.3824C32.4007 21.6462 31.9363 22.0278 31.5701 22.4993L31.5466 22.5251V22.5354C31.0427 23.1839 30.749 23.9773 30.7066 24.8049C30.6622 25.6114 30.8803 26.4102 31.3265 27.0762V27.0848C31.3265 27.0848 31.3265 27.0848 31.3349 27.0951C31.6642 27.5724 32.1016 27.9607 32.6096 28.2268C33.1176 28.4929 33.681 28.6289 34.2516 28.6231C34.8388 28.6185 35.4175 28.4797 35.9457 28.2168C36.4738 27.954 36.938 27.5737 37.3043 27.1037C37.3141 27.0942 37.3231 27.0839 37.3312 27.0728L37.3362 27.0745ZM34.2734 28.1791C33.7375 28.1791 33.2872 27.5391 33.0587 26.5944C33.4858 26.5072 33.9202 26.4634 34.3557 26.4637C34.7874 26.4629 35.218 26.5067 35.641 26.5944C35.3201 27.5305 34.8077 28.1705 34.2734 28.1705V28.1791ZM34.3776 26.0077C33.9048 26.0067 33.4331 26.0545 32.9697 26.1505C32.9135 25.7812 32.8887 25.4075 32.8957 25.0338H35.9535C35.9245 25.4107 35.8638 25.7843 35.7721 26.1505C35.3163 26.0518 34.8518 26.0011 34.386 25.9991L34.3776 26.0077ZM31.1384 25.0338H32.4505C32.4413 25.4444 32.4683 25.855 32.5312 26.2606C32.2042 26.3541 31.8886 26.4852 31.5903 26.6512C31.3008 26.1601 31.1448 25.5988 31.1384 25.0252V25.0338ZM31.7684 22.9449C32.0528 23.1116 32.3557 23.2428 32.6706 23.3355C32.5692 23.7382 32.5029 24.1494 32.4723 24.5641H31.1602C31.2275 23.9807 31.4366 23.4241 31.7684 22.9449ZM34.5977 21.417C35.1336 21.417 35.5839 22.0571 35.8141 23.0017C35.3865 23.0897 34.9514 23.1335 34.5153 23.1325C34.0837 23.1341 33.653 23.0902 33.2301 23.0017C33.5459 22.0622 34.0634 21.4221 34.5977 21.4221V21.417ZM34.4935 23.5884C34.9663 23.5894 35.438 23.5416 35.9014 23.4456C35.9577 23.8155 35.9824 24.1898 35.9754 24.5641H32.9176C32.9473 24.1867 33.008 23.8126 33.099 23.4456C33.5577 23.5438 34.025 23.5934 34.4935 23.5936V23.5884ZM37.7327 24.5641H36.4206C36.4298 24.1529 36.4028 23.7417 36.3399 23.3355C36.6669 23.242 36.9825 23.111 37.2808 22.9449C37.5699 23.4355 37.7259 23.9962 37.7327 24.5692V24.5641ZM36.4021 25.0252H37.7143C37.6467 25.6079 37.4376 26.164 37.1061 26.6426C36.8217 26.4759 36.5188 26.3448 36.2038 26.252C36.3051 25.8498 36.3714 25.4393 36.4021 25.0252ZM37.0305 22.5836C36.7833 22.7145 36.5238 22.8195 36.2559 22.8967C36.1566 22.4406 35.9723 22.0082 35.7133 21.6235C36.2265 21.8188 36.6798 22.1501 37.0271 22.5836H37.0305ZM33.4703 21.6235C33.1743 22.0037 32.9468 22.4348 32.7983 22.8967C32.5398 22.8205 32.2902 22.7155 32.054 22.5836C32.442 22.151 32.927 21.8215 33.467 21.6235H33.4703ZM31.849 27.0091C32.0958 26.8786 32.3547 26.7737 32.6219 26.6959C32.722 27.1519 32.9062 27.5841 33.1646 27.9692C32.6492 27.7754 32.1938 27.4439 31.8457 27.0091H31.849ZM35.4075 27.9692C35.7035 27.589 35.931 27.1578 36.0795 26.6959C36.3378 26.7729 36.5873 26.8779 36.8238 27.0091C36.4339 27.4426 35.9466 27.7722 35.4041 27.9692H35.4075Z" fill="#2DC0CE"/>
<path opacity="0.6" d="M32.447 15.5668L30.5552 33.7093L33.0854 33.7489L34.994 15.6046L32.447 15.5668Z" fill="#FEFEFE"/>
<path opacity="0.6" d="M35.8627 15.6184L33.9541 33.7627L34.9991 33.7782L36.9077 15.6339L35.8627 15.6184Z" fill="#FEFEFE"/>
<path opacity="0.3" d="M31.5918 15.2984C31.6363 15.2984 31.6791 15.2802 31.7106 15.248C31.7421 15.2157 31.7598 15.1719 31.7598 15.1263C31.7599 15.0824 31.7435 15.0401 31.7142 15.0081C31.6848 14.9761 31.6446 14.9569 31.6018 14.9542C31.5573 14.9542 31.5146 14.9724 31.483 15.0046C31.4515 15.0369 31.4338 15.0807 31.4338 15.1263C31.4338 15.1702 31.4501 15.2125 31.4794 15.2444C31.5088 15.2764 31.549 15.2957 31.5918 15.2984Z" fill="#FEFEFE"/>
</svg>
