<svg width="32" height="32" viewBox="0 0 32 32" fill="none" xmlns="http://www.w3.org/2000/svg">
<path d="M31.2 13.856C31.1991 13.8553 31.1983 13.8543 31.1976 13.8535L18.1441 0.800539C17.5877 0.243897 16.848 -0.0625 16.0611 -0.0625C15.2742 -0.0625 14.5345 0.243897 13.9778 0.800539L0.931187 13.847C0.926792 13.8513 0.922154 13.856 0.918003 13.8604C-0.224577 15.0096 -0.222624 16.8741 0.923619 18.0203C1.4473 18.5442 2.13871 18.8475 2.87821 18.8794C2.90849 18.8824 2.93876 18.8838 2.96928 18.8838H3.4893V28.4898C3.4893 30.3909 5.03618 31.9376 6.9373 31.9376H12.0442C12.5621 31.9376 12.9817 31.5176 12.9817 31.0001V23.4688C12.9817 22.6014 13.6876 21.8958 14.555 21.8958H17.5672C18.4346 21.8958 19.1402 22.6014 19.1402 23.4688V31.0001C19.1402 31.5176 19.5599 31.9376 20.0777 31.9376H25.1847C27.086 31.9376 28.6327 30.3909 28.6327 28.4898V18.8838H29.1151C29.9017 18.8838 30.6415 18.5774 31.1983 18.0205C32.3458 16.8726 32.3463 15.0047 31.2 13.856V13.856ZM29.8724 16.6949C29.67 16.8973 29.401 17.0088 29.1151 17.0088H27.6952C27.1773 17.0088 26.7577 17.4285 26.7577 17.9463V28.4898C26.7577 29.357 26.0521 30.0626 25.1847 30.0626H21.0152V23.4688C21.0152 21.5677 19.4686 20.0208 17.5672 20.0208H14.555C12.6536 20.0208 11.1067 21.5677 11.1067 23.4688V30.0626H6.9373C6.07011 30.0626 5.3643 29.357 5.3643 28.4898V17.9463C5.3643 17.4285 4.94462 17.0088 4.4268 17.0088H3.03129C3.01664 17.0078 3.00224 17.0071 2.98734 17.0069C2.70805 17.002 2.44608 16.8911 2.24979 16.6946C1.83231 16.2771 1.83231 15.5977 2.24979 15.18C2.25004 15.18 2.25004 15.1797 2.25028 15.1795L2.25101 15.1787L15.304 2.12623C15.5062 1.92383 15.775 1.8125 16.0611 1.8125C16.347 1.8125 16.6158 1.92383 16.8182 2.12623L29.8683 15.1761C29.8702 15.178 29.8724 15.18 29.8744 15.1819C30.2896 15.6001 30.2889 16.2781 29.8724 16.6949V16.6949Z" fill="currentColor"/>
</svg>
