<svg width="24" height="24" viewBox="0 0 24 24" fill="none" xmlns="http://www.w3.org/2000/svg">
<path d="M10.9848 24C12.7959 24 14.3109 22.7089 14.6588 21H7.31079C7.65887 22.7089 9.17389 24 10.9848 24Z" fill="#111516"/>
<path d="M17.997 11.9991C17.9929 11.9991 17.9889 12 17.9849 12C14.1259 12 10.9849 8.85992 10.9849 5.00006C10.9849 3.93896 11.229 2.93591 11.654 2.03394C11.4339 2.01306 11.2109 2.00006 10.9849 2.00006C7.11903 2.00006 3.985 5.13391 3.985 9V11.788C3.985 13.767 3.11799 15.635 1.59694 16.921C1.08992 17.354 0.864881 18.0439 1.04689 18.717C1.25892 19.5 2.03291 20.0001 2.84498 20.0001H19.1199C19.9719 20.0001 20.775 19.448 20.9479 18.613C21.0819 17.967 20.8519 17.322 20.351 16.901C18.8969 15.6821 18.0559 13.8909 17.997 11.9991Z" fill="#111516"/>
<path d="M22.9848 5.00006C22.9848 7.76147 20.7463 9.99994 17.9847 9.99994C15.2233 9.99994 12.9849 7.76147 12.9849 5.00006C12.9849 2.23865 15.2233 0 17.9847 0C20.7463 0 22.9848 2.23865 22.9848 5.00006Z" fill="#E3831D"/>
</svg>
