<svg width="20" height="22" viewBox="0 0 20 22" fill="none" xmlns="http://www.w3.org/2000/svg">
<path d="M19.7556 19.5593L14.0682 13.6663C15.1699 12.2563 15.8332 10.4647 15.8332 8.51333C15.8332 3.99065 12.2815 0.310669 7.91656 0.310669C3.55161 0.310669 0 3.99061 0 8.51329C0 13.036 3.55165 16.7159 7.9166 16.7159C9.7999 16.7159 11.5291 16.0287 12.8899 14.8872L18.5773 20.7801C18.7398 20.9485 18.9531 21.0331 19.1665 21.0331C19.3798 21.0331 19.5932 20.9485 19.7557 20.7801C20.0815 20.4425 20.0815 19.8968 19.7556 19.5593ZM7.9166 14.9891C4.46996 14.9891 1.66666 12.0845 1.66666 8.51329C1.66666 4.9421 4.46996 2.03751 7.9166 2.03751C11.3632 2.03751 14.1665 4.9421 14.1665 8.51329C14.1665 12.0845 11.3632 14.9891 7.9166 14.9891Z" fill="#757474"/>
</svg>
