<svg width="28" height="28" viewBox="0 0 28 28" fill="none" xmlns="http://www.w3.org/2000/svg">
<path d="M16.1234 25.6666H11.8767C11.6106 25.6667 11.3525 25.5758 11.1452 25.409C10.9379 25.2422 10.7938 25.0096 10.7369 24.7496L10.262 22.5516C9.6286 22.2741 9.02797 21.927 8.47119 21.5168L6.32803 22.1993C6.07435 22.2802 5.80064 22.2719 5.55233 22.1758C5.30403 22.0796 5.09609 21.9014 4.96303 21.6708L2.83503 17.9946C2.70336 17.7638 2.65394 17.4951 2.69484 17.2325C2.73575 16.9699 2.86455 16.729 3.06019 16.5491L4.72269 15.0325C4.64709 14.3454 4.64709 13.6522 4.72269 12.9651L3.06019 11.452C2.86428 11.272 2.73529 11.0309 2.69438 10.7681C2.65348 10.5052 2.70307 10.2363 2.83503 10.0053L4.95836 6.32681C5.09142 6.09618 5.29937 5.918 5.54767 5.82187C5.79597 5.72573 6.06968 5.71742 6.32336 5.79831L8.46653 6.48081C8.75119 6.27081 9.04753 6.07481 9.35319 5.89748C9.64836 5.73181 9.95169 5.58131 10.262 5.44715L10.738 3.25148C10.7947 2.99154 10.9385 2.75878 11.1456 2.59179C11.3527 2.42479 11.6107 2.33359 11.8767 2.33331H16.1234C16.3894 2.33359 16.6474 2.42479 16.8545 2.59179C17.0616 2.75878 17.2054 2.99154 17.262 3.25148L17.7427 5.44831C18.0694 5.59298 18.389 5.75515 18.6982 5.93598C18.9864 6.10281 19.2652 6.28598 19.5335 6.48315L21.6779 5.80065C21.9314 5.72005 22.2048 5.72851 22.4529 5.82463C22.7009 5.92076 22.9087 6.09876 23.0417 6.32915L25.165 10.0076C25.4357 10.4825 25.3424 11.0833 24.9399 11.4531L23.2774 12.9698C23.353 13.6569 23.353 14.3501 23.2774 15.0371L24.9399 16.5538C25.3424 16.9248 25.4357 17.5245 25.165 17.9993L23.0417 21.6778C22.9086 21.9084 22.7007 22.0866 22.4524 22.1828C22.2041 22.2789 21.9304 22.2872 21.6767 22.2063L19.5335 21.5238C18.9772 21.9337 18.3769 22.2804 17.7439 22.5575L17.262 24.7496C17.2051 25.0094 17.0612 25.2419 16.8541 25.4086C16.6471 25.5754 16.3892 25.6664 16.1234 25.6666ZM13.9954 9.33331C12.7577 9.33331 11.5707 9.82498 10.6955 10.7001C9.82036 11.5753 9.32869 12.7623 9.32869 14C9.32869 15.2377 9.82036 16.4246 10.6955 17.2998C11.5707 18.175 12.7577 18.6666 13.9954 18.6666C15.233 18.6666 16.42 18.175 17.2952 17.2998C18.1704 16.4246 18.662 15.2377 18.662 14C18.662 12.7623 18.1704 11.5753 17.2952 10.7001C16.42 9.82498 15.233 9.33331 13.9954 9.33331Z" fill="currentColor"/>
</svg>
