<svg width="40" height="40" viewBox="0 0 40 40" fill="none" xmlns="http://www.w3.org/2000/svg">
<path d="M23.175 3.44499e-05H1.69218C1.46266 -0.00134614 1.23525 0.0387828 1.02397 0.117948C0.812694 0.197112 0.622026 0.313636 0.463722 0.460333C0.305418 0.60703 0.182832 0.780792 0.103523 0.970907C0.0242142 1.16102 -0.0101389 1.36346 0.00258424 1.56574L2.01739 38.4343C2.04609 38.8543 2.25377 39.2491 2.59871 39.5396C2.94365 39.83 3.40031 39.9945 3.87697 40H25.3598C25.5893 40.0014 25.8166 39.9612 26.0278 39.882C26.239 39.8029 26.4296 39.6863 26.5878 39.5396C26.746 39.3929 26.8684 39.2191 26.9476 39.029C27.0267 38.8389 27.0609 38.6365 27.0479 38.4343L25.0346 1.56574C25.0059 1.14574 24.7982 0.750867 24.4533 0.460439C24.1083 0.170011 23.6517 0.00553149 23.175 3.44499e-05Z" fill="#111516"/>
<path d="M23.9686 3.49945e-05H2.47985C2.25039 -0.0013567 2.02304 0.0387753 1.81184 0.117954C1.60063 0.197133 1.41006 0.313679 1.25187 0.460397C1.09368 0.607115 0.971236 0.780893 0.892096 0.971004C0.812956 1.16112 0.778799 1.36353 0.791732 1.56574L2.80505 38.4343C2.83376 38.8543 3.04143 39.2491 3.38637 39.5396C3.73131 39.83 4.18797 39.9945 4.66464 40H26.1475C26.3769 40.0014 26.6043 39.9612 26.8155 39.882C27.0267 39.8029 27.2173 39.6863 27.3754 39.5396C27.5336 39.3929 27.6561 39.2191 27.7352 39.029C27.8144 38.8389 27.8485 38.6365 27.8356 38.4343L25.8223 1.56574C25.7936 1.14662 25.5868 0.752492 25.2431 0.462194C24.8994 0.171896 24.4442 0.0068368 23.9686 3.49945e-05Z" fill="#111516"/>
<path d="M4.60448 38.9561C4.44624 38.9526 4.29515 38.8972 4.18065 38.8007C4.06616 38.7042 3.99645 38.5736 3.98511 38.4342L1.97475 1.56573C1.97115 1.49843 1.98305 1.4312 2.00972 1.36808C2.03639 1.30495 2.07728 1.24726 2.12992 1.19848C2.18256 1.1497 2.24585 1.11085 2.31598 1.08426C2.38611 1.05768 2.46162 1.04392 2.53795 1.04382H24.0208C24.1792 1.04677 24.3307 1.10197 24.4453 1.19857C24.56 1.29517 24.6295 1.42615 24.6401 1.56573L26.6535 38.4342C26.6571 38.5014 26.6452 38.5685 26.6186 38.6316C26.5921 38.6946 26.5513 38.7522 26.4988 38.801C26.4463 38.8498 26.3832 38.8886 26.3133 38.9153C26.2433 38.942 26.1679 38.9558 26.0917 38.9561H4.60448Z" fill="#2DC0CE"/>
<path opacity="0.1" d="M4.59395 38.6952C4.51496 38.6929 4.43969 38.665 4.38245 38.6169C4.32522 38.5688 4.29001 38.5038 4.28353 38.4343L2.27021 1.56576C2.26883 1.53226 2.27504 1.49885 2.28848 1.46749C2.30192 1.43614 2.32231 1.40747 2.34847 1.38316C2.37463 1.35885 2.40603 1.3394 2.44082 1.32595C2.47561 1.3125 2.51309 1.30531 2.55107 1.30481H24.0339C24.113 1.30685 24.1884 1.33462 24.2457 1.38279C24.303 1.43096 24.3382 1.49613 24.3443 1.56576L26.3576 38.4343C26.359 38.4678 26.3528 38.5012 26.3394 38.5325C26.3259 38.5639 26.3055 38.5926 26.2794 38.6169C26.2532 38.6412 26.2218 38.6606 26.187 38.6741C26.1522 38.6875 26.1148 38.6947 26.0768 38.6952H4.59395Z" fill="#111516"/>
<g opacity="0.3">
<path opacity="0.3" d="M11.0774 36.5763H6.8216C6.70478 36.5751 6.5928 36.5349 6.50829 36.4637C6.42378 36.3925 6.37304 36.2956 6.36631 36.1927L6.05588 30.4896C6.05201 30.4392 6.05998 30.3886 6.0793 30.341C6.09862 30.2935 6.12887 30.2499 6.16815 30.2132C6.20744 30.1764 6.2549 30.1473 6.30757 30.1275C6.36024 30.1077 6.41697 30.0977 6.47422 30.0982H10.7374C10.8539 30.099 10.9657 30.139 11.05 30.21C11.1343 30.281 11.1848 30.3777 11.1912 30.4805L11.4972 36.1849C11.5008 36.2353 11.4927 36.2859 11.4732 36.3335C11.4537 36.3811 11.4233 36.4246 11.3839 36.4613C11.3445 36.498 11.297 36.5272 11.2442 36.547C11.1915 36.5668 11.1347 36.5767 11.0774 36.5763ZM6.4683 30.2312C6.43142 30.2311 6.39488 30.2375 6.36085 30.25C6.32682 30.2626 6.296 30.281 6.27022 30.3043C6.24511 30.3283 6.22564 30.3565 6.21295 30.3871C6.20026 30.4178 6.19461 30.4504 6.19631 30.4831L6.50822 36.1849C6.51234 36.2547 6.54641 36.3205 6.60351 36.369C6.66062 36.4174 6.73647 36.4449 6.81568 36.4458H11.0774C11.1144 36.446 11.1511 36.4396 11.1853 36.4268C11.2194 36.4139 11.2501 36.3951 11.2756 36.3714C11.3011 36.3476 11.3208 36.3195 11.3335 36.2888C11.3462 36.258 11.3516 36.2253 11.3494 36.1927L11.0375 30.4896C11.0337 30.4199 10.9999 30.3541 10.9431 30.3056C10.8862 30.2571 10.8105 30.2296 10.7315 30.2286L6.4683 30.2312Z" fill="#F5F6F6"/>
<path opacity="0.3" d="M10.6755 31.5556H6.67401C6.65441 31.5556 6.63561 31.5487 6.62175 31.5365C6.60789 31.5242 6.6001 31.5076 6.6001 31.4903C6.6001 31.473 6.60789 31.4565 6.62175 31.4442C6.63561 31.432 6.65441 31.4251 6.67401 31.4251H10.68C10.6996 31.4251 10.7184 31.432 10.7322 31.4442C10.7461 31.4565 10.7539 31.473 10.7539 31.4903C10.7539 31.5076 10.7461 31.5242 10.7322 31.5365C10.7184 31.5487 10.6996 31.5556 10.68 31.5556H10.6755Z" fill="#F5F6F6"/>
<path opacity="0.3" d="M10.7168 32.2928H6.70941C6.68992 32.2924 6.67134 32.2855 6.65756 32.2733C6.64378 32.2611 6.63588 32.2447 6.6355 32.2275C6.6355 32.2102 6.64328 32.1936 6.65714 32.1814C6.67101 32.1692 6.68981 32.1623 6.70941 32.1623H10.7168C10.7364 32.1623 10.7552 32.1692 10.7691 32.1814C10.783 32.1936 10.7907 32.2102 10.7907 32.2275C10.7904 32.2447 10.7825 32.2611 10.7687 32.2733C10.7549 32.2855 10.7363 32.2924 10.7168 32.2928Z" fill="#F5F6F6"/>
<path opacity="0.3" d="M10.7566 33.03H6.7492C6.72972 33.0296 6.71114 33.0226 6.69736 33.0105C6.68358 32.9983 6.67567 32.9819 6.67529 32.9647C6.67529 32.9474 6.68308 32.9308 6.69694 32.9186C6.7108 32.9063 6.7296 32.8995 6.7492 32.8995H10.7566C10.7762 32.8995 10.795 32.9063 10.8089 32.9186C10.8228 32.9308 10.8305 32.9474 10.8305 32.9647C10.8305 32.982 10.8228 32.9986 10.8089 33.0108C10.795 33.0231 10.7762 33.03 10.7566 33.03Z" fill="#F5F6F6"/>
<path opacity="0.3" d="M10.7967 33.7671H6.79071C6.77111 33.7671 6.75231 33.7603 6.73845 33.748C6.72458 33.7358 6.7168 33.7192 6.7168 33.7019C6.7168 33.6846 6.72458 33.668 6.73845 33.6558C6.75231 33.6435 6.77111 33.6367 6.79071 33.6367H10.7967C10.8163 33.6367 10.8351 33.6435 10.8489 33.6558C10.8628 33.668 10.8706 33.6846 10.8706 33.7019C10.8706 33.7192 10.8628 33.7358 10.8489 33.748C10.8351 33.7603 10.8163 33.7671 10.7967 33.7671Z" fill="#F5F6F6"/>
<path opacity="0.3" d="M10.8365 34.5043H6.8305C6.8109 34.5043 6.7921 34.4974 6.77824 34.4852C6.76438 34.473 6.75659 34.4564 6.75659 34.4391C6.75659 34.4218 6.76438 34.4052 6.77824 34.3929C6.7921 34.3807 6.8109 34.3738 6.8305 34.3738H10.8365C10.8561 34.3738 10.8749 34.3807 10.8887 34.3929C10.9026 34.4052 10.9104 34.4218 10.9104 34.4391C10.9104 34.4564 10.9026 34.473 10.8887 34.4852C10.8749 34.4974 10.8561 34.5043 10.8365 34.5043Z" fill="#F5F6F6"/>
<path opacity="0.3" d="M10.0561 35.2415H6.87054C6.85094 35.2415 6.83214 35.2346 6.81828 35.2224C6.80442 35.2102 6.79663 35.1936 6.79663 35.1763C6.79663 35.159 6.80442 35.1424 6.81828 35.1301C6.83214 35.1179 6.85094 35.111 6.87054 35.111H10.0561C10.0757 35.111 10.0945 35.1179 10.1083 35.1301C10.1222 35.1424 10.13 35.159 10.13 35.1763C10.1296 35.1935 10.1217 35.2099 10.1079 35.222C10.0942 35.2342 10.0756 35.2412 10.0561 35.2415Z" fill="#F5F6F6"/>
</g>
<g opacity="0.3">
<path opacity="0.3" d="M13.7602 15.6519L10.8378 16.0642C10.725 15.8187 10.5759 15.5875 10.3943 15.3766C10.2194 15.2145 10.0125 15.0819 9.78385 14.9851L9.89324 17.0075C11.5183 17.385 12.6117 17.7834 13.1734 18.2027C13.5315 18.4661 13.8221 18.7936 14.026 19.1637C14.2299 19.5337 14.3423 19.9377 14.356 20.349C14.3951 20.8303 14.2949 21.3125 14.0647 21.7503C13.8459 22.1587 13.5309 22.5212 13.1409 22.8137C12.7775 23.0884 12.3574 23.2984 11.9036 23.4321C11.3709 23.5735 10.8189 23.6499 10.2628 23.6592L10.282 24.0154C10.2865 24.0813 10.2755 24.1473 10.2498 24.2094C10.2241 24.2714 10.1843 24.3281 10.1327 24.3759C10.0811 24.4238 10.0189 24.4618 9.95003 24.4875C9.88111 24.5132 9.80693 24.5262 9.73211 24.5255C9.57666 24.5241 9.42761 24.4706 9.31511 24.3759C9.2026 24.2812 9.13503 24.1524 9.12604 24.0154L9.10683 23.6592C8.45805 23.6224 7.8175 23.511 7.20142 23.3277C6.72947 23.1772 6.293 22.9512 5.9139 22.661C5.56786 22.4002 5.27489 22.0891 5.04766 21.7412C4.8198 21.3669 4.65403 20.9658 4.55542 20.5499L7.73505 20.2224C7.85528 20.6826 8.0031 21.0153 8.17851 21.2206C8.3989 21.4591 8.68209 21.6463 9.00335 21.766L8.86884 19.2974C8.08139 19.1243 7.3104 18.8975 6.56283 18.6189C6.07921 18.406 5.66355 18.0898 5.35365 17.699C4.99144 17.2473 4.79112 16.7101 4.77863 16.1568C4.74427 15.775 4.80449 15.3913 4.9551 15.0321C5.1057 14.673 5.34309 14.347 5.65077 14.077C6.27753 13.5195 7.23837 13.2107 8.53328 13.1507L8.52293 12.9693C8.51847 12.9034 8.52942 12.8373 8.55511 12.7753C8.58079 12.7133 8.62066 12.6566 8.67224 12.6087C8.72382 12.5609 8.786 12.5229 8.85491 12.4971C8.92383 12.4714 8.998 12.4585 9.07283 12.4591C9.22828 12.4606 9.37733 12.514 9.48983 12.6087C9.60234 12.7034 9.66991 12.8323 9.6789 12.9693L9.68924 13.1507C10.8718 13.2159 11.7888 13.4629 12.4402 13.8918C13.0954 14.3279 13.5613 14.9491 13.7602 15.6519ZM8.63085 14.9538C8.36728 15.0135 8.12932 15.14 7.94643 15.3179C7.82199 15.4653 7.76167 15.6472 7.77644 15.8306C7.78426 16.0273 7.86531 16.2162 8.00704 16.3682C8.20439 16.551 8.4542 16.6831 8.72989 16.7505L8.63085 14.9538ZM10.1637 21.8325C10.6072 21.7455 10.9275 21.5994 11.1246 21.3941C11.2192 21.3018 11.2922 21.1938 11.3394 21.0765C11.3866 20.9592 11.407 20.8347 11.3995 20.7104C11.3845 20.4839 11.2799 20.2692 11.1039 20.1037C10.9176 19.9197 10.5629 19.7475 10.0425 19.5896L10.1637 21.8325Z" fill="#F5F6F6"/>
</g>
<path opacity="0.2" d="M21.4854 4.81329H6.85107L8.27755 30.9228C8.34716 31.9924 8.87431 32.9988 9.75241 33.7385C10.6305 34.4782 11.7941 34.896 13.0078 34.9075H27.6421L26.2171 8.79802C26.1482 7.72795 25.621 6.72101 24.7425 5.98114C23.8639 5.24128 22.6996 4.82381 21.4854 4.81329Z" fill="#111516"/>
<path d="M25.07 4.81329H6.85547C8.06933 4.82445 9.23308 5.24217 10.1113 5.98193C10.9894 6.7217 11.5165 7.72828 11.5857 8.79802L12.7491 30.0525C12.8187 31.1221 13.3458 32.1285 14.224 32.8682C15.1021 33.608 16.2656 34.0258 17.4794 34.0372H26.6635C27.2482 34.0426 27.828 33.9417 28.3666 33.7409C28.9053 33.5401 29.3914 33.2436 29.7948 32.8698C30.1981 32.4961 30.51 32.0531 30.7111 31.5684C30.9121 31.0838 30.9981 30.5678 30.9636 30.0525L29.8017 8.79802C29.7328 7.72795 29.2056 6.72101 28.3271 5.98114C27.4485 5.24128 26.2842 4.82381 25.07 4.81329Z" fill="#F5F6F6"/>
<path d="M21.7781 30.0525C21.8128 30.5675 21.7271 31.0832 21.5264 31.5677C21.3257 32.0522 21.0142 32.4951 20.6113 32.8688C20.2084 33.2425 19.7227 33.5391 19.1845 33.7401C18.6462 33.9411 18.0668 34.0423 17.4824 34.0372H35.6954C36.2799 34.0422 36.8593 33.9411 37.3977 33.7401C37.936 33.5391 38.4218 33.2426 38.8248 32.8689C39.2278 32.4952 39.5394 32.0523 39.7403 31.5678C39.9412 31.0833 40.0271 30.5675 39.9926 30.0525H21.7781Z" fill="#E6E6E6"/>
<path d="M27.6347 18.0057H14.7625C14.6722 18.0048 14.5857 17.9738 14.5204 17.9188C14.4551 17.8638 14.4159 17.789 14.4107 17.7095C14.4082 17.6713 14.4147 17.633 14.4297 17.597C14.4447 17.5611 14.4678 17.5282 14.4977 17.5005C14.5276 17.4727 14.5637 17.4507 14.6036 17.4357C14.6436 17.4207 14.6866 17.4131 14.7299 17.4133H27.6022C27.6935 17.4129 27.7814 17.4433 27.848 17.4984C27.9146 17.5535 27.9546 17.6291 27.9599 17.7095C27.9624 17.7482 27.9557 17.7869 27.9404 17.8232C27.9251 17.8595 27.9014 17.8927 27.8708 17.9205C27.8403 17.9483 27.8035 17.9703 27.7629 17.9849C27.7222 17.9996 27.6786 18.0067 27.6347 18.0057Z" fill="#2DC0CE"/>
<path d="M27.7353 19.8545H14.8631C14.7728 19.8537 14.6863 19.8226 14.621 19.7676C14.5557 19.7127 14.5165 19.6378 14.5112 19.5583C14.5088 19.5201 14.5153 19.4818 14.5303 19.4459C14.5452 19.4099 14.5684 19.377 14.5983 19.3493C14.6282 19.3215 14.6643 19.2995 14.7042 19.2845C14.7441 19.2695 14.7871 19.2619 14.8305 19.2622H27.7043C27.7942 19.2633 27.8804 19.2945 27.9454 19.3495C28.0104 19.4044 28.0494 19.479 28.0546 19.5583C28.057 19.5966 28.0505 19.6349 28.0356 19.6708C28.0206 19.7068 27.9974 19.7396 27.9675 19.7674C27.9376 19.7951 27.9016 19.8172 27.8616 19.8322C27.8217 19.8471 27.7787 19.8547 27.7353 19.8545Z" fill="#2DC0CE"/>
<path d="M27.8374 21.702H14.9636C14.8734 21.7012 14.7869 21.6701 14.7216 21.6152C14.6563 21.5602 14.6171 21.4854 14.6118 21.4059C14.6094 21.3676 14.6159 21.3293 14.6309 21.2934C14.6458 21.2574 14.669 21.2246 14.6989 21.1968C14.7288 21.1691 14.7649 21.147 14.8048 21.132C14.8447 21.1171 14.8877 21.1094 14.9311 21.1097H27.8122C27.9025 21.1105 27.989 21.1416 28.0543 21.1966C28.1196 21.2515 28.1588 21.3263 28.1641 21.4059C28.1665 21.4447 28.1598 21.4835 28.1444 21.5199C28.129 21.5563 28.1052 21.5895 28.0745 21.6173C28.0437 21.6452 28.0068 21.6671 27.966 21.6817C27.9252 21.6962 27.8814 21.7032 27.8374 21.702Z" fill="#2DC0CE"/>
<path d="M27.9377 23.5535H15.0654C14.9753 23.5523 14.889 23.5212 14.8238 23.4663C14.7585 23.4114 14.7192 23.3367 14.7136 23.2573C14.7112 23.2191 14.7177 23.1808 14.7327 23.1448C14.7476 23.1089 14.7708 23.076 14.8007 23.0483C14.8306 23.0205 14.8667 22.9985 14.9066 22.9835C14.9465 22.9685 14.9895 22.9609 15.0329 22.9611H27.9052C27.9954 22.962 28.0819 22.993 28.1472 23.048C28.2125 23.103 28.2518 23.1778 28.257 23.2573C28.2594 23.2956 28.2529 23.3338 28.238 23.3698C28.223 23.4057 28.1998 23.4386 28.1699 23.4664C28.14 23.4941 28.104 23.5162 28.064 23.5311C28.0241 23.5461 27.9811 23.5537 27.9377 23.5535Z" fill="#2DC0CE"/>
<path d="M22.9207 25.4024H15.166C15.0758 25.4015 14.9893 25.3704 14.924 25.3155C14.8587 25.2605 14.8195 25.1857 14.8142 25.1062C14.8118 25.0679 14.8183 25.0297 14.8332 24.9937C14.8482 24.9578 14.8714 24.9249 14.9013 24.8971C14.9312 24.8694 14.9672 24.8473 15.0072 24.8324C15.0471 24.8174 15.0901 24.8098 15.1335 24.81H22.8882C22.9784 24.8109 23.065 24.8419 23.1303 24.8969C23.1956 24.9519 23.2348 25.0267 23.24 25.1062C23.2424 25.1444 23.236 25.1827 23.221 25.2187C23.206 25.2546 23.1829 25.2875 23.1529 25.3152C23.123 25.343 23.087 25.365 23.0471 25.38C23.0071 25.395 22.9641 25.4026 22.9207 25.4024Z" fill="#2DC0CE"/>
<path d="M23.8151 14.1733C25.3383 12.796 25.2457 10.5357 23.6082 9.12481C21.9707 7.71387 19.4085 7.68658 17.8852 9.06385C16.362 10.4411 16.4546 12.7014 18.0921 14.1123C19.7296 15.5233 22.2918 15.5506 23.8151 14.1733Z" fill="#2DC0CE"/>
<path d="M24.1874 11.6163C24.2154 12.1012 24.103 12.5843 23.8608 13.0202C23.5982 13.4876 23.1917 13.8802 22.6878 14.153C22.184 14.4258 21.6033 14.5677 21.0123 14.5625C20.4008 14.5584 19.8011 14.4141 19.2719 14.1437C18.7427 13.8733 18.3023 13.4862 17.9937 13.0202C17.7059 12.594 17.5409 12.1119 17.5133 11.6163C17.4878 11.2355 17.5512 10.8542 17.6997 10.496C17.8482 10.1378 18.0785 9.81034 18.3765 9.53403C18.6744 9.25773 19.0335 9.03846 19.4315 8.88985C19.8295 8.74124 20.2579 8.66647 20.69 8.67018C21.5869 8.68001 22.4464 8.98938 23.0953 9.53601C23.7442 10.0826 24.1344 10.8259 24.1874 11.6163Z" fill="#FEFEFE"/>
<path opacity="0.4" d="M23.8609 13.0202C23.5983 13.4876 23.1918 13.8802 22.688 14.153C22.1842 14.4257 21.6034 14.5677 21.0124 14.5624C20.401 14.5583 19.8012 14.414 19.2721 14.1437C18.7429 13.8733 18.3024 13.4861 17.9939 13.0202C18.8446 12.5049 19.8536 12.2317 20.8853 12.2373C21.942 12.2391 22.9755 12.511 23.8609 13.0202Z" fill="#2DC0CE"/>
<path opacity="0.4" d="M21.8837 11.5455C22.4437 11.0392 22.4099 10.2084 21.8082 9.68993C21.2065 9.17146 20.2647 9.16164 19.7047 9.668C19.1447 10.1744 19.1785 11.0051 19.7802 11.5236C20.3819 12.0421 21.3237 12.0519 21.8837 11.5455Z" fill="#2DC0CE"/>
</svg>
