<svg width="32" height="32" viewBox="0 0 32 32" fill="none" xmlns="http://www.w3.org/2000/svg">
<path d="M14.178 12.25C16.1343 12.25 17.5006 10.7079 17.5006 8.5C17.5006 8.15488 17.2207 7.875 16.8756 7.875H15.0059C14.6608 7.875 14.3809 8.15488 14.3809 8.5C14.3809 8.84512 14.6608 9.125 15.0059 9.125H16.1966C16.0263 10.0897 15.4357 11 14.178 11C12.7995 11 11.678 9.8785 11.678 8.5C11.678 7.1215 12.7995 6 14.178 6C14.679 6 15.1622 6.1475 15.5753 6.42662C15.8614 6.61981 16.2498 6.54463 16.4431 6.25856C16.6363 5.9725 16.5611 5.584 16.2751 5.39075C15.6545 4.97156 14.9293 4.75 14.178 4.75C12.1102 4.75 10.428 6.43225 10.428 8.5C10.428 10.5677 12.1102 12.25 14.178 12.25Z" fill="currentColor"/>
<path d="M6.88361 12.25C6.90054 12.25 6.91767 12.2499 6.93473 12.2495C8.24236 12.2231 9.31961 11.1801 9.38729 9.875C9.42336 9.18012 9.17992 8.52006 8.70161 8.01637C8.23017 7.51975 7.56742 7.23494 6.88323 7.23494C6.69498 7.23494 6.53023 7.24369 6.38117 7.26038L6.58998 6H8.37261C8.71773 6 8.99761 5.72012 8.99761 5.375C8.99761 5.02988 8.71773 4.75 8.37261 4.75H6.06004C5.75429 4.75 5.49348 4.97119 5.44348 5.27281L4.98536 8.038C4.94686 8.2705 5.04348 8.50425 5.23342 8.64356C5.42354 8.78287 5.67686 8.80306 5.88692 8.69644C5.89198 8.69381 5.91004 8.68494 5.93829 8.67219C6.18973 8.559 6.39142 8.48487 6.8833 8.48487C7.23123 8.48487 7.55511 8.62413 7.79517 8.87694C8.03504 9.12956 8.15717 9.461 8.13904 9.81019C8.10511 10.4639 7.56504 10.9864 6.90954 10.9997C6.27073 11.0142 5.72579 10.5478 5.63786 9.91813C5.62979 9.86069 5.62573 9.80163 5.62573 9.74238C5.62573 9.39725 5.34586 9.11738 5.00073 9.11738C4.65561 9.11738 4.37573 9.39725 4.37573 9.74238C4.37573 9.85944 4.38392 9.97694 4.39992 10.0913C4.57279 11.3304 5.63561 12.2501 6.88361 12.25V12.25Z" fill="currentColor"/>
<path d="M4.68823 16.9375H14.6882C15.206 16.9375 15.6257 16.5178 15.6257 16C15.6257 15.4822 15.206 15.0625 14.6882 15.0625H4.68823C4.17048 15.0625 3.75073 15.4822 3.75073 16C3.75073 16.5178 4.17042 16.9375 4.68823 16.9375Z" fill="currentColor"/>
<path d="M30.9067 7.74419L30.0947 7.27544L30.251 7.00481C31.0264 5.66175 30.5646 3.93831 29.2216 3.16287C27.8784 2.38744 26.155 2.84925 25.3796 4.19231L21.8755 10.2614V2.8125C21.8755 1.26169 20.6138 0 19.0629 0H2.81256C1.26169 0 0 1.26169 0 2.8125V29.1875C0 30.7383 1.26169 32 2.81256 32H22.813C24.3639 32 25.6256 30.7383 25.6256 29.1875V26.0625C25.6256 25.5447 25.2058 25.125 24.6881 25.125H21.8755V21.3921C22.1528 20.9893 22.4153 20.5764 22.6597 20.1531L29.1572 8.89925L29.9692 9.368C30.1184 9.45413 30.1698 9.64569 30.0836 9.79488L26.9585 15.2076C26.6996 15.6559 26.8532 16.2293 27.3016 16.4882C27.75 16.7471 28.3234 16.5934 28.5823 16.1451L31.7074 10.7324C32.3104 9.68775 31.9512 8.34725 30.9067 7.74419V7.74419ZM2.81256 30.125C2.29556 30.125 1.87506 29.7044 1.87506 29.1875V2.8125C1.87506 2.29556 2.29562 1.875 2.81256 1.875H19.0629C19.5799 1.875 20.0004 2.29556 20.0004 2.8125V13.5089L17.7881 17.3406C17.5117 17.8193 17.2573 18.3107 17.0248 18.8124H4.68762C4.16987 18.8124 3.75012 19.2322 3.75012 19.7499C3.75012 20.2677 4.16987 20.6874 4.68762 20.6874H16.2755C16.0672 21.3027 15.8909 21.929 15.7471 22.5624H4.68762C4.16987 22.5624 3.75012 22.9822 3.75012 23.4999C3.75012 24.0177 4.16987 24.4374 4.68762 24.4374H15.4205C15.3836 24.7392 15.3538 25.0418 15.3318 25.345L14.7732 26.3125H13.3306C13.2471 26.3125 13.1686 26.28 13.1096 26.221C12.3186 25.4301 11.0678 25.3726 10.21 26.0484C9.8555 25.8822 9.46588 25.7947 9.06269 25.7947C8.34006 25.7947 7.66069 26.0761 7.14975 26.5871C6.78356 26.9531 6.78356 27.5467 7.14975 27.9129C7.51588 28.2789 8.1095 28.2789 8.47556 27.9129C8.63244 27.7561 8.84094 27.6697 9.06269 27.6697C9.28444 27.6697 9.49294 27.7561 9.64981 27.9129C10.0159 28.2789 10.6096 28.2789 10.9756 27.9129L11.3418 27.5467C11.4214 27.4672 11.5144 27.4552 11.5627 27.4552C11.6111 27.4552 11.7041 27.4671 11.7837 27.5468C12.1969 27.9599 12.7463 28.1875 13.3306 28.1875H15.3151C15.6388 28.1872 15.9535 28.0184 16.1269 27.7179L16.9557 26.2826C18.0589 25.5346 19.0801 24.6651 20.0004 23.6992V26.0625V29.1875C20.0004 29.5162 20.0576 29.8316 20.1617 30.125H2.81256ZM23.7505 27V29.1875C23.7505 29.7044 23.3299 30.125 22.813 30.125C22.2961 30.125 21.8755 29.7044 21.8755 29.1875V27H23.7505ZM21.0358 19.2156C20.0969 20.8419 18.879 22.3094 17.4574 23.5385C17.811 21.6926 18.473 19.9044 19.4119 18.2781L23.0969 11.8956L24.7208 12.8331L21.0358 19.2156ZM28.6272 6.06731L25.6584 11.2093L24.0346 10.2718L27.0034 5.12981C27.2619 4.68213 27.8363 4.52819 28.2841 4.78669C28.7318 5.04519 28.8856 5.61956 28.6272 6.06731V6.06731Z" fill="currentColor"/>
</svg>
