2<svg width="20" height="32" viewBox="0 0 20 32" fill="none" xmlns="http://www.w3.org/2000/svg">
<path d="M17.1332 0H2.86669C1.67812 0 0.705322 0.971886 0.705322 2.16137V29.8377C0.705322 31.0272 1.67812 32 2.86669 32H17.1332C18.3218 32 19.2946 31.029 19.2946 29.8386V2.16137C19.2946 0.971886 18.3218 0 17.1332 0ZM7.71789 1.55794H12.282C12.4265 1.55794 12.5435 1.67497 12.5435 1.82034C12.5435 1.9648 12.4265 2.08183 12.282 2.08183H7.71789C7.57344 2.08183 7.45641 1.9648 7.45641 1.82034C7.45641 1.67497 7.57344 1.55794 7.71789 1.55794ZM9.99995 30.9193C9.40292 30.9193 8.91927 30.4357 8.91927 29.8377C8.91927 29.2398 9.40292 28.757 9.99995 28.757C10.597 28.757 11.0806 29.2398 11.0806 29.8377C11.0806 30.4357 10.597 30.9193 9.99995 30.9193ZM17.7906 28H2.20932V3.42766H17.7906V28Z" fill="currentColor"/>
</svg>
