<svg width="32" height="32" viewBox="0 0 32 32" fill="none" xmlns="http://www.w3.org/2000/svg">
<g clip-path="url(#clip0_6922_6909)">
<path d="M30.9984 15.0005H18.332C17.78 15.0005 17.332 14.5525 17.332 14.0006C17.332 13.4486 17.78 13.0006 18.332 13.0006H30.9984C31.5503 13.0006 31.9983 13.4486 31.9983 14.0006C31.9983 14.5525 31.5503 15.0005 30.9984 15.0005Z" fill="currentColor"/>
<path d="M25.9985 20.0004C25.7424 20.0004 25.4866 19.903 25.2917 19.7072C24.9011 19.3163 24.9011 18.683 25.2917 18.2924L29.585 13.9993L25.2917 9.70601C24.9011 9.3154 24.9011 8.68212 25.2917 8.2915C25.6826 7.90065 26.3159 7.90065 26.7065 8.2915L31.7063 13.2914C32.0969 13.682 32.0969 14.3152 31.7063 14.7059L26.7065 19.7057C26.5104 19.903 26.2546 20.0004 25.9985 20.0004Z" fill="currentColor"/>
<path d="M10.6664 32C10.381 32 10.1103 31.9599 9.83978 31.876L1.81586 29.2027C0.724099 28.8214 0 27.8041 0 26.6669V2.66765C0 1.19699 1.19601 0.000984192 2.66666 0.000984192C2.95181 0.000984192 3.22256 0.041022 3.4933 0.125004L11.517 2.79826C12.609 3.1796 13.3328 4.1969 13.3328 5.33407V29.3333C13.3328 30.804 12.1371 32 10.6664 32ZM2.66666 2.00092C2.29998 2.00092 1.99994 2.30096 1.99994 2.66765V26.6669C1.99994 26.9508 2.19061 27.2147 2.46257 27.3095L10.4489 29.9708C10.5063 29.9893 10.581 30 10.6664 30C11.0331 30 11.3329 29.7 11.3329 29.3333V5.33407C11.3329 5.05014 11.1422 4.78624 10.8703 4.69151L2.88394 2.03022C2.82657 2.01166 2.75187 2.00092 2.66666 2.00092Z" fill="currentColor"/>
<path d="M20.3319 10.6674C19.78 10.6674 19.332 10.2194 19.332 9.66743V3.66762C19.332 2.74895 18.5842 2.00092 17.6655 2.00092H2.66598C2.114 2.00092 1.66602 1.55294 1.66602 1.00095C1.66602 0.448968 2.114 0.000984192 2.66598 0.000984192H17.6655C19.6882 0.000984192 21.3319 1.64498 21.3319 3.66762V9.66743C21.3319 10.2194 20.8839 10.6674 20.3319 10.6674Z" fill="currentColor"/>
<path d="M17.6663 28.0001H12.333C11.781 28.0001 11.333 27.5521 11.333 27.0001C11.333 26.4481 11.781 26.0002 12.333 26.0002H17.6663C18.585 26.0002 19.3328 25.2521 19.3328 24.3335V18.3337C19.3328 17.7817 19.7807 17.3337 20.3327 17.3337C20.8847 17.3337 21.3327 17.7817 21.3327 18.3337V24.3335C21.3327 26.3561 19.6889 28.0001 17.6663 28.0001Z" fill="currentColor"/>
</g>
<defs>
<clipPath id="clip0_6922_6909">
<rect width="32" height="32" fill="white"/>
</clipPath>
</defs>
</svg>
