<svg width="40" height="40" viewBox="0 0 40 40" fill="none" xmlns="http://www.w3.org/2000/svg">
<path d="M38.0625 38.8205H9.12253C9.03235 38.8212 8.943 38.8011 8.86014 38.7613C8.77728 38.7215 8.7027 38.663 8.64112 38.5895C8.57953 38.5159 8.53227 38.4289 8.50233 38.3339C8.47239 38.2389 8.46041 38.138 8.46716 38.0375L9.65902 16.9173C9.67411 16.7068 9.75876 16.5101 9.8965 16.3654C10.0342 16.2207 10.2152 16.1384 10.4043 16.1344H39.3427C39.4329 16.1337 39.5223 16.1538 39.6051 16.1936C39.688 16.2333 39.7626 16.2918 39.8241 16.3654C39.8857 16.439 39.933 16.526 39.9629 16.621C39.9929 16.716 40.0048 16.8169 39.9981 16.9173L38.8062 38.0375C38.7912 38.2477 38.7067 38.4442 38.5693 38.5889C38.4319 38.7335 38.2513 38.8161 38.0625 38.8205Z" fill="#111516"/>
<path opacity="0.6" d="M38.0625 38.8205H9.12253C9.03235 38.8212 8.943 38.8011 8.86014 38.7613C8.77728 38.7215 8.7027 38.663 8.64112 38.5895C8.57953 38.5159 8.53227 38.4289 8.50233 38.3339C8.47239 38.2389 8.46041 38.138 8.46716 38.0375L9.65902 16.9173C9.67411 16.7068 9.75876 16.5101 9.8965 16.3654C10.0342 16.2207 10.2152 16.1384 10.4043 16.1344H39.3427C39.4329 16.1337 39.5223 16.1538 39.6051 16.1936C39.688 16.2333 39.7626 16.2918 39.8241 16.3654C39.8857 16.439 39.933 16.526 39.9629 16.621C39.9929 16.716 40.0048 16.8169 39.9981 16.9173L38.8062 38.0375C38.7912 38.2477 38.7067 38.4442 38.5693 38.5889C38.4319 38.7335 38.2513 38.8161 38.0625 38.8205Z" fill="#111516"/>
<path d="M37.8462 38.8204H8.90775C8.81743 38.8214 8.72792 38.8015 8.64488 38.7618C8.56184 38.7222 8.48707 38.6637 8.42532 38.5901C8.36357 38.5165 8.31618 38.4294 8.28615 38.3342C8.25611 38.2391 8.24409 38.1381 8.25085 38.0375L9.44271 16.9173C9.45781 16.7068 9.54245 16.5101 9.68019 16.3654C9.81793 16.2207 9.99893 16.1384 10.188 16.1344H39.1264C39.2167 16.1334 39.3061 16.1534 39.3891 16.193C39.4721 16.2327 39.5467 16.2912 39.6084 16.3648C39.67 16.4385 39.7173 16.5256 39.7471 16.6207C39.777 16.7158 39.7888 16.8168 39.7818 16.9173L38.5899 38.0375C38.5749 38.2477 38.4904 38.4442 38.353 38.5889C38.2156 38.7335 38.035 38.816 37.8462 38.8204Z" fill="#111516"/>
<path d="M37.8097 39.0894H3.37536C3.21684 39.0878 3.06115 39.1363 2.92629 39.2294C2.79143 39.3224 2.68292 39.4562 2.6133 39.6153C2.59566 39.6566 2.58775 39.7022 2.59032 39.7479C2.59288 39.7936 2.60585 39.8378 2.62797 39.8763C2.6501 39.9148 2.68066 39.9464 2.71677 39.968C2.75287 39.9896 2.79333 40.0006 2.8343 39.9999H38.3432C38.3841 40.0006 38.4246 39.9896 38.4607 39.968C38.4968 39.9464 38.5274 39.9148 38.5495 39.8763C38.5716 39.8378 38.5846 39.7936 38.5872 39.7479C38.5897 39.7022 38.5818 39.6566 38.5642 39.6153C38.4954 39.4573 38.3881 39.3241 38.2547 39.2311C38.1213 39.1381 37.967 39.089 37.8097 39.0894Z" fill="#111516"/>
<path opacity="0.6" d="M37.8094 39.0894H32.9124C32.7551 39.0888 32.6008 39.1378 32.4673 39.2309C32.3338 39.3239 32.2266 39.4572 32.158 39.6153C32.1404 39.6565 32.1325 39.702 32.135 39.7475C32.1375 39.793 32.1503 39.8371 32.1722 39.8756C32.1942 39.914 32.2245 39.9456 32.2604 39.9674C32.2963 39.9892 32.3366 40.0004 32.3774 40H38.3428C38.3838 40.0007 38.4243 39.9897 38.4604 39.968C38.4965 39.9464 38.527 39.9148 38.5492 39.8763C38.5713 39.8378 38.5842 39.7936 38.5868 39.7479C38.5894 39.7023 38.5815 39.6566 38.5638 39.6153C38.4951 39.4573 38.3878 39.3242 38.2544 39.2311C38.1209 39.1381 37.9667 39.089 37.8094 39.0894Z" fill="#111516"/>
<path d="M34.7734 39.7531H33.5084C33.4792 39.7527 33.4513 39.7394 33.4307 39.7161C33.4102 39.6929 33.3987 39.6615 33.3987 39.6289C33.3987 39.5962 33.4102 39.5649 33.4307 39.5416C33.4513 39.5184 33.4792 39.5051 33.5084 39.5046H34.7734C34.788 39.5046 34.8025 39.5079 34.816 39.5141C34.8295 39.5203 34.8418 39.5295 34.8521 39.541C34.8624 39.5526 34.8706 39.5663 34.8762 39.5813C34.8818 39.5964 34.8847 39.6126 34.8847 39.6289C34.8847 39.6452 34.8818 39.6614 34.8762 39.6764C34.8706 39.6915 34.8624 39.7052 34.8521 39.7167C34.8418 39.7283 34.8295 39.7374 34.816 39.7437C34.8025 39.7499 34.788 39.7531 34.7734 39.7531Z" fill="#2DC0CE"/>
<path opacity="0.7" d="M18.5066 39.7531H17.2431C17.2136 39.7531 17.1853 39.74 17.1644 39.7167C17.1436 39.6934 17.1318 39.6618 17.1318 39.6289C17.1318 39.6126 17.1347 39.5964 17.1403 39.5813C17.1459 39.5663 17.1541 39.5526 17.1644 39.541C17.1748 39.5295 17.187 39.5203 17.2005 39.5141C17.214 39.5079 17.2285 39.5046 17.2431 39.5046H18.5066C18.5212 39.5046 18.5357 39.5079 18.5492 39.5141C18.5627 39.5203 18.5749 39.5295 18.5853 39.541C18.5956 39.5526 18.6038 39.5663 18.6094 39.5813C18.615 39.5964 18.6179 39.6126 18.6179 39.6289C18.6179 39.6618 18.6061 39.6934 18.5853 39.7167C18.5644 39.74 18.5361 39.7531 18.5066 39.7531Z" fill="#FEFEFE"/>
<path d="M36.0826 39.5046H35.255C35.2045 39.5046 35.1636 39.5504 35.1636 39.6068V39.651C35.1636 39.7074 35.2045 39.7531 35.255 39.7531H36.0826C36.1331 39.7531 36.1741 39.7074 36.1741 39.651V39.6068C36.1741 39.5504 36.1331 39.5046 36.0826 39.5046Z" fill="#2DC0CE"/>
<path d="M8.9029 37.2751L10.0094 17.6799C10.0151 17.5981 10.048 17.5217 10.1016 17.4657C10.1551 17.4096 10.2256 17.378 10.299 17.3769H38.8747C38.9097 17.3763 38.9444 17.3839 38.9767 17.3992C39.0089 17.4144 39.0379 17.4371 39.0619 17.4656C39.0859 17.4941 39.1042 17.5279 39.1158 17.5648C39.1274 17.6017 39.132 17.6409 39.1292 17.6799L38.0242 37.2751C38.0181 37.357 37.9849 37.4334 37.9311 37.4894C37.8773 37.5454 37.8067 37.577 37.7331 37.578H9.15895C9.12394 37.5783 9.08924 37.5706 9.05703 37.5553C9.02483 37.5399 8.9958 37.5173 8.97177 37.4889C8.94774 37.4605 8.92922 37.4268 8.91736 37.39C8.90551 37.3532 8.90059 37.3141 8.9029 37.2751Z" fill="#FEFEFE"/>
<path opacity="0.1" d="M25.1594 16.7727L15.6412 36.9755H8.61963C8.58441 36.9761 8.54947 36.9684 8.51704 36.9531C8.48462 36.9377 8.45542 36.915 8.43132 36.8863C8.40722 36.8576 8.38874 36.8237 8.37707 36.7866C8.36541 36.7494 8.36081 36.71 8.36357 36.6708L9.47008 17.0773C9.47576 16.9954 9.50858 16.9188 9.56213 16.8625C9.61568 16.8061 9.68611 16.7741 9.75966 16.7727H25.1594Z" fill="#2DC0CE"/>
<path opacity="0.1" d="M33.4948 16.7727L23.9767 36.9755H21.7576L31.2757 16.7727H33.4948Z" fill="#2DC0CE"/>
<path opacity="0.1" d="M38.5899 17.0773L37.4834 36.6708C37.478 36.7529 37.4453 36.8297 37.3917 36.8861C37.3381 36.9425 37.2674 36.9744 37.1938 36.9755H26.3726L35.8907 16.7727H38.3292C38.3648 16.7716 38.4001 16.7789 38.433 16.794C38.4658 16.8091 38.4955 16.8317 38.5201 16.8604C38.5446 16.8891 38.5635 16.9233 38.5755 16.9606C38.5876 16.998 38.5924 17.0377 38.5899 17.0773Z" fill="#2DC0CE"/>
<path opacity="0.4" d="M24.8254 16.7931C24.8212 16.8548 24.7966 16.9126 24.7563 16.9551C24.7159 16.9976 24.6629 17.0218 24.6074 17.0229C24.581 17.0232 24.5547 17.0174 24.5304 17.0057C24.506 16.9941 24.4841 16.9769 24.466 16.9553C24.448 16.9337 24.4341 16.9081 24.4254 16.8802C24.4167 16.8522 24.4133 16.8226 24.4154 16.7931C24.4192 16.7312 24.4438 16.6732 24.4842 16.6307C24.5246 16.5881 24.5778 16.564 24.6334 16.5633C24.6598 16.563 24.6861 16.5688 24.7104 16.5805C24.7348 16.5921 24.7567 16.6093 24.7748 16.6309C24.7928 16.6525 24.8067 16.6781 24.8154 16.7061C24.8241 16.734 24.8275 16.7636 24.8254 16.7931Z" fill="#FEFEFE"/>
<path d="M20.1038 12.0939C19.2702 13.1593 18.7885 16.4255 19.4058 18.0322C20.0231 19.6388 12.8613 21.2472 18.7702 23.8581C24.6792 26.469 29.4055 23.4411 27.6955 20.7366C25.9854 18.0322 27.8799 13.5286 25.9001 12.3968C24.1107 11.3654 21.7743 9.95784 20.1038 12.0939Z" fill="#111516"/>
<path d="M18.3375 25.2453C18.025 26.4367 17.6928 27.6281 17.3483 28.8195C17.0039 30.0109 16.6457 31.1887 16.2662 32.3716L16.1214 32.8175L16.0482 33.0405L16.0254 33.1068L15.9888 33.2073C15.9659 33.2719 15.9309 33.3417 15.9004 33.4081C15.7514 33.712 15.5291 33.9632 15.2588 34.1331C15.0133 34.282 14.7394 34.3626 14.4601 34.368C14.0685 34.3701 13.6804 34.2851 13.3186 34.1178C13.0223 33.9836 12.7355 33.8249 12.4605 33.643C11.4612 32.9568 10.5453 32.1296 9.73535 31.1819L10.3922 30.3172C10.6132 30.4755 10.8495 30.644 11.0781 30.8023C11.3067 30.9606 11.546 31.1138 11.7777 31.2653C12.2316 31.5619 12.7003 31.8296 13.1814 32.0669C13.4006 32.1749 13.6268 32.2642 13.8581 32.3341C14.018 32.3934 14.1871 32.4154 14.355 32.3988C14.3976 32.3988 14.39 32.3716 14.355 32.3869C14.3199 32.4022 14.2818 32.4465 14.2803 32.4414C14.2787 32.4362 14.2803 32.4414 14.2803 32.4311C14.281 32.4278 14.281 32.4243 14.2803 32.4209L14.2925 32.3784L14.3504 32.1588L14.4677 31.7163L15.399 28.1421C15.716 26.9507 16.0422 25.7593 16.3775 24.5679L18.3375 25.2453Z" fill="#B65B52"/>
<path d="M10.345 30.29L8.57397 29.5581L9.27659 31.6482C9.27659 31.6482 10.5264 31.8491 11.011 31.1155L10.6163 30.5249C10.5479 30.4192 10.4537 30.3377 10.345 30.29Z" fill="#B55B52"/>
<path d="M7.01172 30.1658L7.68538 31.8797L9.28418 31.6448L8.58004 29.5547L7.01172 30.1658Z" fill="#B55B52"/>
<path d="M17.045 22.1629C16.2342 22.3927 15.6733 26.115 15.6733 26.115L17.9062 27.817C17.9062 27.817 20.0399 24.0624 19.4227 23.0684C18.7673 22.0251 18.2262 21.8276 17.045 22.1629Z" fill="#2DC0CE"/>
<path opacity="0.5" d="M17.045 22.1629C16.2342 22.3927 15.6733 26.115 15.6733 26.115L17.9062 27.817C17.9062 27.817 20.0399 24.0624 19.4227 23.0684C18.7673 22.0251 18.2262 21.8276 17.045 22.1629Z" fill="#FEFEFE"/>
<path opacity="0.2" d="M16.9719 23.516L18.7048 23.9636L18.871 25.858C18.5774 26.5267 18.2533 27.1783 17.9001 27.8102L16.5452 26.7889C16.6046 25.9124 16.7509 24.1117 16.9719 23.516Z" fill="#111516"/>
<path d="M17.0452 22.1629C17.0452 22.1629 16.1078 22.5306 17.984 35.4079H25.9643C25.8302 31.781 25.8272 29.5428 27.3787 22.0999C26.2617 21.842 25.1293 21.6753 23.9906 21.6013C22.6478 21.5281 21.552 21.4804 20.3662 21.6013C18.8101 21.7595 17.0452 22.1629 17.0452 22.1629Z" fill="#2DC0CE"/>
<path opacity="0.5" d="M17.0452 22.1629C17.0452 22.1629 16.1078 22.5306 17.984 35.4079H25.9643C25.8302 31.781 25.8272 29.5428 27.3787 22.0999C26.2617 21.842 25.1293 21.6753 23.9906 21.6013C22.6478 21.5281 21.552 21.4804 20.3662 21.6013C18.8101 21.7595 17.0452 22.1629 17.0452 22.1629Z" fill="#FEFEFE"/>
<path opacity="0.2" d="M25.5007 25.555L26.531 26.5354C26.3115 27.8374 26.1637 28.9182 26.0737 29.8866C25.8771 28.9199 25.3864 26.2954 25.5007 25.555Z" fill="#111516"/>
<path d="M23.6306 17.0433C23.402 18.3454 23.1734 20.7316 23.9903 21.6013C23.9903 21.6013 23.2282 23.5518 21.2088 23.5518C19.1893 23.5518 20.3659 21.6013 20.3659 21.6013C21.666 21.2609 21.6325 20.1767 21.4069 19.1657L23.6306 17.0433Z" fill="#B55B52"/>
<path d="M23.7313 21.1145C23.5393 21.5485 22.9205 22.5408 21.1922 22.8948C21.1441 22.9046 21.0945 22.8937 21.0535 22.8641C20.7303 22.6122 20.5292 22.0795 20.6709 21.4617C20.6803 21.4237 20.68 21.3836 20.67 21.3458C20.6601 21.308 20.6408 21.2741 20.6145 21.2479C20.5882 21.2217 20.5558 21.2042 20.5211 21.1975C20.4863 21.1908 20.4506 21.195 20.4179 21.2098C20.2851 21.2718 20.1576 21.347 20.0369 21.4344C20.0103 21.4541 19.9888 21.4811 19.9744 21.5127C19.8479 21.7783 19.3358 23.0786 20.8812 23.8802C20.9059 23.892 20.9322 23.8989 20.959 23.9007C21.8734 23.9211 23.4722 23.7202 24.4827 21.688C24.5008 21.6513 24.5088 21.6095 24.5058 21.5678C24.5028 21.5261 24.489 21.4862 24.466 21.4532C24.3302 21.2871 24.1724 21.1454 23.9981 21.0328C23.9761 21.017 23.9514 21.0066 23.9257 21.0022C23.8999 20.9978 23.8735 20.9995 23.8484 21.0072C23.8232 21.0149 23.7998 21.0285 23.7796 21.047C23.7595 21.0654 23.743 21.0884 23.7313 21.1145Z" fill="#F5F6F6"/>
<path d="M24.155 26.4724L22.0974 26.406C22.0759 26.4062 22.0546 26.4012 22.035 26.3915C22.0153 26.3818 21.9977 26.3676 21.9833 26.3497C21.9689 26.3319 21.958 26.3109 21.9514 26.288C21.9448 26.2651 21.9427 26.241 21.945 26.2171L21.9648 25.9329C21.9708 25.8851 21.9922 25.8413 22.0251 25.81C22.0579 25.7786 22.0999 25.7618 22.1432 25.7627L24.2007 25.829C24.2224 25.8289 24.2438 25.8338 24.2636 25.8437C24.2834 25.8535 24.3011 25.8678 24.3155 25.8859C24.3299 25.9039 24.3407 25.9252 24.3472 25.9482C24.3537 25.9713 24.3557 25.9957 24.3531 26.0197L24.3333 26.3022C24.3273 26.35 24.3059 26.3937 24.2731 26.4251C24.2402 26.4564 24.1982 26.4733 24.155 26.4724Z" fill="#F5F6F6"/>
<path opacity="0.2" d="M22.7238 17.9096L21.407 19.164C21.4635 19.3992 21.5012 19.6396 21.5198 19.8822C22.0151 19.8022 22.6979 19.1929 22.7513 18.6125C22.7804 18.3783 22.7711 18.1401 22.7238 17.9096Z" fill="#111516"/>
<path d="M25.1671 14.5805C24.7998 16.7199 24.6855 17.6339 23.5821 18.5989C21.9223 20.0525 19.6498 19.0789 19.4395 16.8612C19.249 14.8647 19.8815 11.7024 21.8781 11.1169C22.3156 10.9871 22.7756 10.9841 23.2144 11.1083C23.6533 11.2325 24.0564 11.4797 24.3858 11.8265C24.7152 12.1734 24.9598 12.6083 25.0965 13.0903C25.2333 13.5722 25.2576 14.0851 25.1671 14.5805Z" fill="#B55B52"/>
<path d="M24.0771 12.9976C23.8394 14.3371 23.783 16.1123 24.8819 16.1123C25.9808 16.1123 26.8419 14.0239 25.8939 12.3883C24.9459 10.7527 24.2158 12.2079 24.0771 12.9976Z" fill="#111516"/>
<path d="M25.9763 13.1627C25.9763 14.6196 24.3333 13.8997 23.6063 13.2716C22.8793 12.6436 22.8442 12.7117 21.4969 12.71C20.1496 12.7083 19.8798 12.6045 19.482 11.8862C19.0842 11.168 19.1208 10.6948 20.017 10.8463C20.9132 10.9978 20.1603 9.97657 20.8278 9.40981C21.4954 8.84304 22.2864 8.98601 23.1993 10.2795C24.1123 11.573 25.9763 10.6387 25.9763 13.1627Z" fill="#111516"/>
<path d="M25.4937 16.4841C25.6666 15.8256 25.497 15.1904 25.1149 15.0653C24.7329 14.9402 24.283 15.3726 24.1101 16.0311C23.9373 16.6896 24.1068 17.3248 24.4889 17.4499C24.871 17.575 25.3208 17.1426 25.4937 16.4841Z" fill="#FEFEFE"/>
<path d="M22.4433 18.1309C22.0896 18.1308 21.7395 18.0503 21.4145 17.8943C21.4076 17.8911 21.4012 17.8865 21.3959 17.8805C21.3906 17.8746 21.3864 17.8675 21.3836 17.8598C21.3807 17.852 21.3793 17.8437 21.3794 17.8353C21.3795 17.8269 21.3811 17.8186 21.3841 17.8109C21.3904 17.7954 21.4019 17.7832 21.416 17.7768C21.4302 17.7705 21.4461 17.7705 21.4603 17.7769C21.7665 17.9236 22.096 18.0003 22.4293 18.0024C22.7625 18.0044 23.0928 17.9318 23.4005 17.7888C23.6997 17.652 23.9714 17.4498 24.1997 17.1941C24.4279 16.9383 24.6081 16.6342 24.7295 16.2995C25.1867 14.8375 25.6531 13.013 25.1136 11.8743C25.005 11.6527 24.8548 11.4599 24.6733 11.3092C24.4918 11.1585 24.2832 11.0534 24.0619 11.0012C24.0472 10.9968 24.0347 10.9861 24.027 10.9715C24.0193 10.9568 24.0171 10.9394 24.0208 10.9229C24.0247 10.9065 24.0343 10.8925 24.0474 10.8839C24.0605 10.8753 24.0761 10.8728 24.0909 10.8769C24.3273 10.9338 24.55 11.0468 24.7439 11.2083C24.9377 11.3698 25.0981 11.5761 25.2142 11.813C25.775 12.9891 25.3071 14.8494 24.8362 16.3387C24.7084 16.6901 24.5189 17.0094 24.2789 17.2778C24.0389 17.5461 23.7531 17.7581 23.4386 17.9011C23.1233 18.0491 22.7853 18.1271 22.4433 18.1309Z" fill="#FEFEFE"/>
<path opacity="0.6" d="M25.4386 16.4901C25.3029 17.0007 24.992 17.3599 24.7436 17.2799C24.4951 17.1999 24.4037 16.7131 24.5393 16.1957C24.675 15.6783 24.9859 15.3243 25.2343 15.4059C25.4828 15.4876 25.5742 15.9727 25.4386 16.4901Z" fill="#2DC0CE"/>
<path d="M21.5728 17.6127L20.9757 17.4841C20.8707 17.4614 20.7692 17.5381 20.749 17.6554L20.7423 17.6938C20.7221 17.811 20.7908 17.9244 20.8957 17.947L21.4928 18.0756C21.5978 18.0982 21.6993 18.0216 21.7196 17.9043L21.7262 17.8659C21.7464 17.7487 21.6778 17.6353 21.5728 17.6127Z" fill="#FEFEFE"/>
<path d="M20.7924 14.7592C20.7924 14.7592 20.4388 15.4758 20.1035 15.7974C20.2849 16.0442 20.6507 15.9966 20.6507 15.9966L20.7924 14.7592Z" fill="#A02724"/>
<path d="M21.1295 16.9123H21.1432C21.4888 16.9427 21.8318 16.826 22.1034 16.5855C22.109 16.5791 22.1121 16.5706 22.1121 16.5616C22.1121 16.5527 22.109 16.5442 22.1034 16.5378C22.1007 16.5348 22.0975 16.5324 22.094 16.5307C22.0905 16.5291 22.0867 16.5282 22.0829 16.5282C22.079 16.5282 22.0752 16.5291 22.0717 16.5307C22.0682 16.5324 22.065 16.5348 22.0623 16.5378C21.8029 16.7655 21.4768 16.8766 21.1478 16.8493C21.1439 16.8486 21.1399 16.8488 21.136 16.8498C21.1322 16.8509 21.1285 16.8529 21.1254 16.8556C21.1223 16.8583 21.1196 16.8617 21.1177 16.8656C21.1158 16.8695 21.1146 16.8738 21.1143 16.8782C21.1135 16.8849 21.1145 16.8918 21.1172 16.8978C21.1199 16.9039 21.1242 16.9089 21.1295 16.9123Z" fill="#111516"/>
<path d="M22.8731 13.9167C22.8817 13.9221 22.8914 13.9249 22.9013 13.9249C22.9112 13.9249 22.9209 13.9221 22.9295 13.9167C22.9426 13.907 22.9518 13.892 22.9552 13.8748C22.9586 13.8577 22.9559 13.8398 22.9478 13.8248C22.8749 13.6885 22.774 13.5736 22.6534 13.4895C22.5328 13.4054 22.396 13.3547 22.2543 13.3414C22.2384 13.3414 22.2231 13.3484 22.2117 13.3608C22.2004 13.3732 22.1938 13.39 22.1934 13.4078C22.1934 13.4251 22.1994 13.4418 22.2102 13.4542C22.221 13.4666 22.2358 13.4737 22.2513 13.4742C22.3734 13.4872 22.491 13.5322 22.5945 13.6055C22.6981 13.6789 22.7846 13.7785 22.8472 13.8963C22.854 13.9056 22.863 13.9126 22.8731 13.9167Z" fill="#111516"/>
<path d="M21.9998 14.7881C21.9739 14.9583 21.8687 15.0894 21.7651 15.0707C21.6614 15.0519 21.602 14.9005 21.6279 14.7166C21.6538 14.5328 21.7605 14.4154 21.8626 14.4341C21.9647 14.4528 22.0272 14.6128 21.9998 14.7881Z" fill="#111516"/>
<path d="M20.2227 14.4511C20.1968 14.6213 20.0916 14.7524 19.9879 14.7336C19.8843 14.7149 19.8249 14.5549 19.8508 14.3796C19.8767 14.2043 19.9834 14.0767 20.0855 14.0971C20.1876 14.1175 20.2501 14.2741 20.2227 14.4511Z" fill="#111516"/>
<path d="M20.13 14.1158L19.7703 13.9218C19.7703 13.9218 19.9135 14.2878 20.13 14.1158Z" fill="#111516"/>
<path d="M21.9071 14.4529L21.5474 14.2605C21.5474 14.2605 21.6906 14.6265 21.9071 14.4529Z" fill="#111516"/>
<path d="M19.6192 13.2648C19.6285 13.271 19.639 13.2742 19.6497 13.2742C19.6605 13.2742 19.671 13.271 19.6802 13.2648C19.7742 13.1766 19.886 13.115 20.006 13.0853C20.1259 13.0557 20.2505 13.0589 20.3691 13.0946C20.3841 13.1005 20.4005 13.0995 20.4148 13.0918C20.4291 13.0842 20.4401 13.0705 20.4453 13.0538C20.4506 13.0371 20.4497 13.0187 20.4428 13.0028C20.436 12.9868 20.4237 12.9746 20.4087 12.9687C20.272 12.9252 20.1278 12.9192 19.9885 12.9512C19.8492 12.9832 19.7189 13.0522 19.6086 13.1525C19.6022 13.1575 19.5968 13.164 19.5928 13.1714C19.5888 13.1789 19.5862 13.1872 19.5852 13.1958C19.5842 13.2045 19.5848 13.2133 19.587 13.2216C19.5892 13.23 19.5929 13.2377 19.5979 13.2444C19.603 13.2535 19.6104 13.2606 19.6192 13.2648Z" fill="#111516"/>
<path d="M17.6805 37.578C17.6805 37.578 17.6591 36.3593 17.9853 35.4079H25.964C25.964 35.4079 26.6819 36.7014 26.8678 37.578H17.6805Z" fill="#2DC0CE"/>
<path d="M26.0846 34.8854L26.1471 35.682C26.1761 35.7449 26.1105 35.8079 26.0176 35.8079H17.9398C17.8681 35.8079 17.8087 35.7688 17.8041 35.7177L17.731 34.9195C17.731 34.865 17.7889 34.8173 17.8681 34.8173H25.9459C25.9724 34.8142 25.9991 34.8188 26.0234 34.8308C26.0477 34.8427 26.0688 34.8615 26.0846 34.8854Z" fill="#2DC0CE"/>
<path opacity="0.3" d="M26.0846 34.8854L26.1471 35.682C26.1761 35.7449 26.1105 35.8079 26.0176 35.8079H17.9398C17.8681 35.8079 17.8087 35.7688 17.8041 35.7177L17.731 34.9195C17.731 34.865 17.7889 34.8173 17.8681 34.8173H25.9459C25.9724 34.8142 25.9991 34.8188 26.0234 34.8308C26.0477 34.8427 26.0688 34.8615 26.0846 34.8854Z" fill="#F5F6F6"/>
<path d="M24.998 35.893H25.2145C25.2586 35.893 25.2907 35.8692 25.2876 35.8385L25.187 34.802C25.187 34.7714 25.1459 34.7476 25.1032 34.7476H24.8822C24.838 34.7476 24.806 34.7714 24.809 34.802L24.9096 35.8385C24.9173 35.8692 24.9554 35.893 24.998 35.893Z" fill="#2DC0CE"/>
<path d="M18.5523 35.893H18.7688C18.8114 35.893 18.845 35.8692 18.8419 35.8385L18.7398 34.802C18.7398 34.7714 18.7002 34.7476 18.656 34.7476H18.4396C18.3969 34.7476 18.3634 34.7714 18.3664 34.802L18.4685 35.8385C18.4716 35.8692 18.5097 35.893 18.5523 35.893Z" fill="#2DC0CE"/>
<path d="M21.776 35.893H21.9863C22.029 35.893 22.0625 35.8692 22.0595 35.8385L21.9573 34.802C21.9573 34.7714 21.9162 34.7476 21.8735 34.7476H21.6571C21.6144 34.7476 21.5809 34.7714 21.5839 34.802L21.686 35.8385C21.6952 35.8692 21.7318 35.893 21.776 35.893Z" fill="#2DC0CE"/>
<path d="M28.0611 24.6223C28.4117 25.8931 28.7485 27.1708 29.0716 28.4552L29.5578 30.3716L29.8002 31.3248L29.8611 31.5596L29.8916 31.6771L29.8992 31.7043L29.8748 31.6618C29.8363 31.6002 29.7889 31.5461 29.7346 31.5018C29.6154 31.4049 29.4735 31.3487 29.3262 31.3401C29.2149 31.3342 29.1039 31.3587 29.003 31.4116C28.8933 31.478 28.904 31.4933 28.9131 31.4814C28.939 31.4563 28.9625 31.4283 28.9832 31.398C29.0551 31.2977 29.1213 31.1925 29.1814 31.0831C29.3155 30.838 29.4481 30.5623 29.5731 30.2797C29.8322 29.7147 30.0654 29.1156 30.3016 28.5131C30.5378 27.9106 30.7588 27.3012 30.9875 26.6868C31.2161 26.0724 31.434 25.4546 31.6596 24.8452L32.6335 25.1686C32.3805 26.4962 32.0848 27.7999 31.719 29.0986C31.5392 29.7504 31.3395 30.3955 31.1094 31.049C30.9905 31.3758 30.864 31.7026 30.707 32.0413C30.6233 32.2245 30.5297 32.4019 30.4266 32.5723C30.3625 32.6793 30.2912 32.7806 30.2132 32.8753C30.0895 33.032 29.9393 33.1598 29.7712 33.2514C29.6034 33.3425 29.4181 33.3858 29.2317 33.3774C29.0107 33.3637 28.7984 33.2765 28.622 33.1272C28.5096 33.0325 28.4122 32.9175 28.334 32.7868C28.2844 32.7029 28.2411 32.6147 28.2044 32.523C28.1907 32.4855 28.1755 32.4464 28.1648 32.4123L28.1358 32.329L28.0962 32.2081L28.0169 31.9681C27.9133 31.6499 27.8081 31.3316 27.7121 31.0133C27.517 30.3768 27.3219 29.7419 27.139 29.1037C26.7651 27.8283 26.4166 26.5467 26.0935 25.2588L28.0611 24.6223Z" fill="#B65B52"/>
<path d="M27.3786 22.0999C28.1787 22.3706 29.4026 25.875 29.4026 25.875L26.301 28.3514C26.301 28.3514 24.9064 25.3559 25.2417 24.2019C25.5923 23.0003 26.4671 21.7902 27.3786 22.0999Z" fill="#2DC0CE"/>
<path opacity="0.5" d="M27.3786 22.0999C28.1787 22.3706 29.4026 25.875 29.4026 25.875L26.301 28.3514C26.301 28.3514 24.9064 25.3559 25.2417 24.2019C25.5923 23.0003 26.4671 21.7902 27.3786 22.0999Z" fill="#FEFEFE"/>
<path d="M31.6948 25.3116L31.2695 23.2182L33.0375 24.2598C33.0375 24.2598 33.0589 25.6691 32.3456 26.1133L31.6948 25.3116Z" fill="#B55B52"/>
<path d="M32.0102 21.557L33.1381 22.4506L33.0375 24.2598L31.2695 23.2182L32.0102 21.557Z" fill="#B55B52"/>
<path d="M2.2862 11.2163H14.6315C14.8673 11.2137 15.1009 11.2657 15.3177 11.3691C15.5344 11.4725 15.7296 11.625 15.8909 11.817C16.0522 12.0089 16.1761 12.2362 16.2547 12.4843C16.3333 12.7325 16.365 12.9962 16.3477 13.2587L16.0033 19.4982C15.9654 20.0475 15.7454 20.5613 15.3863 20.939C15.0272 21.3167 14.5548 21.5313 14.0615 21.5406H12.6319L13.2156 23.6835L10.4235 21.5406H1.72075C1.48504 21.5432 1.25142 21.4912 1.03465 21.3878C0.817874 21.2844 0.62267 21.1319 0.461376 20.9399C0.300082 20.748 0.176206 20.5207 0.097582 20.2726C0.0189579 20.0244 -0.0127046 19.7608 0.0045957 19.4982L0.345998 13.2587C0.383847 12.7097 0.603639 12.1962 0.962425 11.8185C1.32121 11.4408 1.79321 11.2261 2.2862 11.2163Z" fill="#2DC0CE"/>
<path d="M13.5005 14.4841H3.06027C3.01595 14.4839 2.97215 14.4733 2.93167 14.4532C2.89118 14.433 2.85489 14.4037 2.82509 14.367C2.79528 14.3304 2.77262 14.2872 2.75853 14.2403C2.74445 14.1934 2.73925 14.1437 2.74326 14.0944C2.75008 13.9911 2.79123 13.8944 2.85862 13.8232C2.92601 13.752 3.01479 13.7116 3.10752 13.7097H13.5492C13.5933 13.7098 13.637 13.7201 13.6774 13.7398C13.7178 13.7595 13.7541 13.7883 13.7841 13.8244C13.8141 13.8605 13.8372 13.903 13.8518 13.9495C13.8665 13.9959 13.8724 14.0452 13.8693 14.0944C13.8639 14.1996 13.8227 14.2985 13.7541 14.3709C13.6856 14.4434 13.5949 14.4839 13.5005 14.4841Z" fill="#FEFEFE"/>
<path d="M7.31581 16.7631H2.9355C2.89115 16.7634 2.8472 16.7535 2.80644 16.734C2.76567 16.7145 2.72896 16.6858 2.69861 16.6497C2.66827 16.6135 2.64494 16.5708 2.6301 16.5241C2.61526 16.4774 2.60923 16.4278 2.61239 16.3784C2.61924 16.2748 2.6606 16.1779 2.72831 16.1067C2.79603 16.0355 2.88517 15.9952 2.97817 15.9938H7.36306C7.40754 15.9932 7.45165 16.0029 7.49259 16.0223C7.53354 16.0417 7.57044 16.0704 7.60095 16.1066C7.63146 16.1427 7.65492 16.1855 7.66985 16.2323C7.68478 16.2791 7.69086 16.3289 7.68769 16.3784C7.68041 16.483 7.63808 16.5807 7.56915 16.652C7.50022 16.7233 7.40976 16.763 7.31581 16.7631Z" fill="#FEFEFE"/>
<path d="M11.0694 19.0421H2.81026C2.7659 19.0425 2.72196 19.0326 2.68119 19.0131C2.64043 18.9935 2.60372 18.9648 2.57337 18.9287C2.54302 18.8926 2.5197 18.8498 2.50486 18.8031C2.49002 18.7565 2.48399 18.7069 2.48714 18.6574C2.49365 18.5537 2.53491 18.4565 2.60269 18.3853C2.67048 18.314 2.75982 18.2738 2.85293 18.2728H11.1121C11.1565 18.2722 11.2006 18.2819 11.2415 18.3013C11.2823 18.3208 11.3191 18.3495 11.3495 18.3857C11.3799 18.4218 11.4032 18.4647 11.418 18.5115C11.4328 18.5583 11.4386 18.608 11.4352 18.6574C11.4284 18.761 11.387 18.858 11.3193 18.9292C11.2516 19.0004 11.1624 19.0407 11.0694 19.0421Z" fill="#FEFEFE"/>
<path d="M10.5332 16.7631H8.80635C8.76199 16.7634 8.71805 16.7536 8.67729 16.734C8.63652 16.7145 8.59981 16.6858 8.56946 16.6497C8.53912 16.6135 8.51579 16.5708 8.50095 16.5241C8.48611 16.4774 8.48008 16.4278 8.48324 16.3784C8.49043 16.275 8.53189 16.1782 8.59953 16.1071C8.66717 16.036 8.75613 15.9956 8.84902 15.9938H10.5743C10.6187 15.9932 10.6628 16.0029 10.7037 16.0223C10.7445 16.0417 10.7813 16.0705 10.8117 16.1066C10.8421 16.1428 10.8654 16.1857 10.8802 16.2325C10.895 16.2793 10.9008 16.329 10.8974 16.3784C10.8906 16.4817 10.8495 16.5784 10.7821 16.6496C10.7147 16.7208 10.6259 16.7612 10.5332 16.7631Z" fill="#FEFEFE"/>
<path d="M19.4766 6.59017e-05H12.7461C12.3623 0.00649884 11.9945 0.17299 11.7151 0.466825C11.4356 0.760661 11.2646 1.16059 11.2357 1.58804L10.9736 6.44556C10.9605 6.64979 10.9855 6.85483 11.0469 7.04775C11.1083 7.24067 11.2049 7.41729 11.3305 7.56648C11.456 7.71567 11.6079 7.83419 11.7766 7.91458C11.9452 7.99496 12.1269 8.03546 12.3102 8.03353H13.4122L12.7751 9.7015L15.1314 8.03353H19.0362C19.42 8.0271 19.7878 7.86061 20.0672 7.56677C20.3467 7.27293 20.5177 6.873 20.5466 6.44556L20.8133 1.58804C20.8263 1.3838 20.8014 1.17877 20.74 0.985847C20.6785 0.792926 20.582 0.616305 20.4564 0.467116C20.3308 0.317927 20.179 0.199405 20.0103 0.119021C19.8417 0.0386376 19.66 -0.00186459 19.4766 6.59017e-05Z" fill="#2DC0CE"/>
<g opacity="0.5">
<path opacity="0.5" d="M19.4766 6.59017e-05H12.7461C12.3623 0.00649884 11.9945 0.17299 11.7151 0.466825C11.4356 0.760661 11.2646 1.16059 11.2357 1.58804L10.9736 6.44556C10.9605 6.64979 10.9855 6.85483 11.0469 7.04775C11.1083 7.24067 11.2049 7.41729 11.3305 7.56648C11.456 7.71567 11.6079 7.83419 11.7766 7.91458C11.9452 7.99496 12.1269 8.03546 12.3102 8.03353H13.4122L12.7751 9.7015L15.1314 8.03353H19.0362C19.42 8.0271 19.7878 7.86061 20.0672 7.56677C20.3467 7.27293 20.5177 6.873 20.5466 6.44556L20.8133 1.58804C20.8263 1.3838 20.8014 1.17877 20.74 0.985847C20.6785 0.792926 20.582 0.616305 20.4564 0.467116C20.3308 0.317927 20.179 0.199405 20.0103 0.119021C19.8417 0.0386376 19.66 -0.00186459 19.4766 6.59017e-05Z" fill="#F5F6F6"/>
</g>
<path d="M16.232 4.81162C16.2088 4.91859 16.1542 5.01379 16.0768 5.08199C15.9994 5.15018 15.9038 5.18742 15.8053 5.18776H15.4075C15.4075 5.06181 15.4166 4.98522 15.4181 4.95799C15.4239 4.71267 15.4802 4.47213 15.5827 4.25506C15.7268 4.01309 15.9097 3.80303 16.1223 3.63553C16.2918 3.49834 16.4518 3.34699 16.6009 3.1828C16.6799 3.07831 16.7269 2.94827 16.735 2.81176C16.741 2.72132 16.7283 2.63055 16.6979 2.54645C16.6675 2.46235 16.6202 2.38716 16.5597 2.32669C16.4118 2.18524 16.2206 2.11326 16.0263 2.12585C15.8219 2.11963 15.6221 2.19439 15.4623 2.3369C15.3674 2.42437 15.2896 2.53271 15.2337 2.65518C15.1926 2.74464 15.1286 2.81854 15.05 2.86759C14.9714 2.91664 14.8815 2.93867 14.7917 2.9309C14.7271 2.92197 14.6655 2.89498 14.6127 2.85244C14.5599 2.80989 14.5176 2.75316 14.4897 2.6875C14.4617 2.62183 14.449 2.54935 14.4528 2.47677C14.4566 2.40418 14.4767 2.33383 14.5113 2.27223C14.6032 2.09987 14.7213 1.94667 14.8603 1.81949C15.1906 1.52299 15.6059 1.37003 16.0293 1.38889C16.5277 1.38889 16.9148 1.53356 17.1937 1.8246C17.3243 1.94996 17.4271 2.10742 17.494 2.28461C17.5609 2.46179 17.5901 2.65389 17.5793 2.8458C17.5653 3.06394 17.4978 3.27357 17.3842 3.45172C17.1702 3.74609 16.9227 4.00813 16.6481 4.23123C16.5058 4.34216 16.3829 4.48117 16.2854 4.64142C16.2606 4.6951 16.2426 4.75239 16.232 4.81162ZM15.3617 6.03366V5.97919C15.3698 5.8562 15.4189 5.74105 15.4993 5.65657C15.5798 5.57209 15.6857 5.52444 15.7961 5.52306H15.851C15.9038 5.52219 15.9562 5.53361 16.0049 5.55656C16.0535 5.57952 16.0974 5.61353 16.1336 5.65642C16.1699 5.69931 16.1978 5.75016 16.2155 5.80572C16.2332 5.86129 16.2404 5.92036 16.2366 5.97919V6.03366C16.2286 6.15682 16.1795 6.27215 16.0991 6.35691C16.0187 6.44167 15.9128 6.48969 15.8022 6.4915H15.7534C15.7 6.49334 15.6468 6.4826 15.5973 6.45997C15.5478 6.43734 15.5031 6.40332 15.4662 6.36013C15.4292 6.31695 15.4008 6.26556 15.3828 6.20931C15.3648 6.15306 15.3577 6.09321 15.3617 6.03366Z" fill="#FEFEFE"/>
</svg>
